<?xml version="1.0" encoding="UTF-8" standalone="no"?>
<!DOCTYPE svg PUBLIC "-//W3C//DTD SVG 1.1//EN" "http://www.w3.org/Graphics/SVG/1.1/DTD/svg11.dtd">
<svg width="100%" height="100%" viewBox="0 0 2732 2048" version="1.1" xmlns="http://www.w3.org/2000/svg" xmlns:xlink="http://www.w3.org/1999/xlink" xml:space="preserve" xmlns:serif="http://www.serif.com/" style="fill-rule:evenodd;clip-rule:evenodd;stroke-linecap:round;stroke-linejoin:round;stroke-miterlimit:2.28659;">
    <g id="SIGN-5" serif:id="SIGN 5" transform="matrix(1,0,0,1,356.87,-98.6538)">
        <path d="M1502.95,854.93L1417.26,1180.9L1805.8,1279.61L1897.45,948.704L1502.95,854.93Z" style="fill:white;"/>
        <g id="HEAD">
            <path d="M1427.31,1150.14C1427.31,1150.14 1463.55,1144.02 1507.73,1141.96C1586.45,1138.29 1698.08,1150.6 1785.45,1200.4C1800.07,1208.73 1811.43,1223.57 1822.3,1236.7L1810.83,1276.53L1419.04,1181.64L1427.31,1150.14Z" style="fill:rgb(184,205,243);"/>
            <path d="M1626.01,981.231C1626.01,981.231 1618.79,968.939 1646.13,964.803C1646.13,964.803 1738.2,955.561 1751.3,1030.59C1751.3,1030.59 1800.72,1003.01 1815.43,1055.05C1818.22,1064.91 1809.66,1097.61 1770.37,1098.22C1770.37,1098.22 1786.49,1136.29 1742.97,1147.83C1736,1149.68 1710.96,1149.57 1702.8,1126.22" style="fill:none;stroke:rgb(239,123,88);stroke-width:8px;"/>
            <g transform="matrix(1,0,0,1,10.6865,-7.51355)">
                <path d="M1614.24,1030.59C1614.24,1030.59 1580.2,989.264 1550.95,1030.59C1542.31,1042.8 1540.72,1063 1565.18,1072.38C1565.18,1072.38 1538.33,1101.37 1565.18,1126.37C1565.18,1126.37 1594.48,1146.34 1614.24,1113.92" style="fill:none;stroke:rgb(239,123,88);stroke-width:8px;"/>
            </g>
            <path d="M1497.32,1142.51C1497.32,1142.51 1679.5,1210.86 1786.51,1201.39C1786.51,1201.39 1731.35,1166.92 1710.89,1159.1L1728.86,1089.73C1728.86,1089.73 1771.94,1081.9 1760.78,1056.56C1757.02,1048.02 1744.51,1045.65 1728.86,1052.75C1728.86,1052.75 1668.37,1031.63 1673.39,982.109C1673.39,982.109 1634.39,992.892 1622.13,973.026C1622.13,973.026 1605.71,1028.4 1594.24,1067.07C1588.02,1088.05 1598.33,1110.39 1618.33,1119.27C1618.33,1119.27 1618.33,1119.27 1618.33,1119.27L1613.27,1135.03C1613.27,1135.03 1521.31,1139.23 1497.32,1142.51Z" style="fill:rgb(183,77,47);"/>
            <path d="M1717.59,1162.38L1710.63,1158.41L1707.87,1167.6C1707.27,1169.73 1708.51,1171.94 1710.63,1172.54C1712.76,1173.13 1714.97,1171.89 1715.57,1169.77L1717.59,1162.38Z"/>
            <path d="M1618.33,1119.27C1618.33,1119.27 1646.11,1125.73 1670.83,1120.7C1671.84,1120.47 1672.87,1121.01 1673.25,1121.97C1673.62,1122.93 1673.24,1124.03 1672.34,1124.54C1670.71,1125.4 1668.5,1126.32 1665.53,1127.27C1665.53,1127.27 1642.02,1134.63 1614.79,1130.85"/>
        </g>
        <g id="ARM">
            <g transform="matrix(1,0,0,1,-356.87,98.6538)">
                <path d="M1840.86,1321.97C1837.64,1313.29 1838.23,1303.48 1842.8,1295.1C1848.87,1283.97 1860.84,1277.38 1873.48,1278.2C1880.35,1278.65 1888.53,1280 1897.56,1283.07C1899.63,1283.78 1900.74,1286.03 1900.03,1288.1C1899.33,1290.17 1897.07,1291.28 1895,1290.57C1886.74,1287.76 1879.26,1286.52 1872.96,1286.12C1863.4,1285.49 1854.35,1290.48 1849.76,1298.89C1845.17,1307.31 1845.89,1317.62 1851.59,1325.31C1869.1,1348.78 1913.8,1362.77 1913.8,1362.77C1915.88,1363.44 1917.04,1365.66 1916.38,1367.75C1915.72,1369.84 1913.49,1370.99 1911.4,1370.33C1911.4,1370.33 1863.91,1355.09 1845.23,1330.04C1845.02,1329.76 1844.82,1329.47 1844.62,1329.19C1839.14,1334.16 1836.24,1339.27 1835.44,1344.46C1834.12,1352.94 1838.24,1361.4 1844.44,1369.27C1861.36,1390.73 1894.19,1407.61 1894.19,1407.61C1896.13,1408.61 1896.89,1411 1895.89,1412.95C1894.89,1414.89 1892.5,1415.65 1890.55,1414.65C1890.55,1414.65 1857.39,1397.49 1839.29,1375.51C1839.24,1375.59 1839.18,1375.67 1839.12,1375.75C1834.03,1382.13 1831.67,1388.34 1831.42,1394.33C1831.04,1403.45 1835.47,1411.94 1841.77,1419.49C1858.66,1439.72 1889.15,1453.26 1889.15,1453.26C1891.14,1454.15 1892.04,1456.5 1891.15,1458.5C1890.26,1460.5 1887.92,1461.39 1885.92,1460.5C1885.92,1460.5 1855.75,1447 1837.54,1426.71C1834.36,1433.14 1836.73,1440.83 1841.25,1448.65C1855.02,1472.48 1889.83,1497.04 1889.83,1497.04C1891.61,1498.3 1892.03,1500.78 1890.77,1502.56C1889.5,1504.35 1887.03,1504.77 1885.24,1503.51C1885.24,1503.51 1875.95,1496.9 1864.89,1487.14L1851.4,1568.99C1851.04,1571.14 1849,1572.61 1846.84,1572.25C1844.68,1571.9 1843.22,1569.86 1843.58,1567.7L1857.73,1481.85C1857.79,1481.5 1857.89,1481.17 1858.03,1480.86C1849.12,1472.39 1840.06,1462.44 1834.39,1452.62C1827.63,1440.92 1825.7,1429.36 1832.27,1420.13C1826.61,1412.12 1823.11,1403.29 1823.5,1394C1823.81,1386.54 1826.59,1378.74 1832.92,1370.81C1833.43,1370.17 1834.1,1369.73 1834.83,1369.5C1829.25,1361.06 1826.23,1352.1 1827.6,1343.25C1828.71,1336.13 1832.61,1328.97 1840.59,1322.18C1840.68,1322.11 1840.77,1322.04 1840.86,1321.97ZM1955.15,1295.55C1955.15,1295.55 1956.95,1295.99 1959.94,1296.73C1991.42,1304.49 2013.55,1332.73 2013.55,1365.16L2013.55,1556.62C2013.55,1558.8 2015.33,1560.58 2017.51,1560.58C2019.7,1560.58 2021.48,1558.8 2021.48,1556.62L2021.48,1365.16C2021.48,1329.08 1996.86,1297.66 1961.83,1289.03C1958.85,1288.3 1957.05,1287.85 1957.05,1287.85C1954.93,1287.33 1952.78,1288.63 1952.25,1290.75C1951.73,1292.88 1953.03,1295.03 1955.15,1295.55ZM1877.71,1305.02C1877.71,1305.02 1932.97,1325.41 1961.07,1319.89C1963.22,1319.47 1964.62,1317.39 1964.2,1315.24C1963.78,1313.09 1961.69,1311.69 1959.55,1312.11C1949.02,1314.18 1934.44,1312.24 1920.72,1309.28C1899.59,1304.72 1880.48,1297.59 1880.48,1297.59C1878.43,1296.83 1876.14,1297.87 1875.38,1299.92C1874.61,1301.97 1875.66,1304.25 1877.71,1305.02Z" style="fill:rgb(239,123,88);"/>
            </g>
            <g transform="matrix(0.997612,0,0,1.00539,-6.20011,-10.0836)">
                <path d="M1460.59,1831.45L1479.89,1654.59L1717.41,1654.59L1694.42,1831.45L1460.59,1831.45Z" style="fill:rgb(71,115,195);"/>
            </g>
        </g>
        <g id="SIGN">
            <path d="M1532.91,1399.45L1573.27,1220.6L1636.16,1234.79L1596.27,1411.53C1586.64,1412.06 1574.96,1410.33 1563.85,1407.93C1551.84,1405.34 1540.48,1401.92 1532.91,1399.45Z" style="fill:rgb(129,164,232);"/>
            <path d="M1505.81,859.654L1421.09,1181.9C1420.53,1184.02 1418.37,1185.29 1416.25,1184.73C1414.13,1184.17 1412.87,1182 1413.42,1179.89L1499.12,853.922C1499.66,851.851 1501.76,850.587 1503.84,851.067L1900.47,942.377C1902.6,942.867 1903.94,944.996 1903.44,947.128C1902.95,949.26 1900.83,950.592 1898.69,950.101L1505.81,859.654Z" style="fill:rgb(129,164,232);"/>
            <path d="M1805.39,1274.61L1895.76,945.19C1896.34,943.081 1898.52,941.838 1900.63,942.417C1902.74,942.995 1903.98,945.178 1903.4,947.287L1812.01,1280.45C1811.44,1282.53 1809.31,1283.77 1807.22,1283.24L1416.29,1184.74C1414.17,1184.2 1412.88,1182.05 1413.41,1179.93C1413.95,1177.81 1416.1,1176.52 1418.23,1177.05L1805.39,1274.61Z" style="fill:rgb(129,164,232);"/>
        </g>
    </g>
    <g id="SIGN-4" serif:id="SIGN 4" transform="matrix(1,0,0,1,356.87,-98.6538)">
        <g transform="matrix(1,0,0,1,-356.87,98.6538)">
            <path d="M961.791,1571.38L964.624,1350.69L1024.38,1317.92C1024.38,1317.92 1020.9,1186.83 1054.61,1203.85C1054.61,1203.85 1066.99,1235.49 1072.23,1251.91C1072.23,1251.91 1087.52,1291.65 1103.52,1315.49C1103.52,1315.49 1131.5,1372.16 1136.14,1485.28L1136.14,1568.87L961.791,1571.38Z" style="fill:white;"/>
        </g>
        <path d="M603.894,1575.42C605.25,1574.75 605.012,1654.05 604.594,1667.52" style="fill:none;stroke:black;stroke-width:8px;"/>
        <g>
            <path d="M394.73,416.426L948.166,463.383L906.625,939.037L355.374,878.076L394.73,416.426Z" style="fill:white;"/>
            <g id="HEAD1" serif:id="HEAD">
                <g>
                    <g transform="matrix(1,0,0,1,-356.87,98.6538)">
                        <path d="M922.725,476.207C922.358,476.158 921.992,476.057 921.637,475.9C919.617,475.009 918.702,472.645 919.594,470.626C919.594,470.626 921.714,465.825 924.598,459.293C934.919,435.921 956.799,419.724 982.166,416.679C992.28,415.464 1003.46,414.122 1014.53,412.793C1053.41,408.125 1089.67,433.164 1099.08,471.175L1137.9,627.958C1142.07,626.571 1148.76,624.758 1155.92,624.428C1164.36,624.039 1173.38,625.735 1180.14,631.943C1186.31,637.609 1190.82,647.227 1190.7,663.188C1197.82,660.209 1210.28,655.777 1223.35,654.767C1237.48,653.676 1252.21,656.59 1262.33,668.634C1269.99,677.751 1275.11,692.335 1274.75,715.076C1274.71,717.283 1272.89,719.046 1270.68,719.011C1270.2,719.003 1269.73,718.909 1269.31,718.744C1269.29,719.43 1269.27,720.126 1269.24,720.83L1137.85,649.911L851.366,644.498L749.412,674.258C749.377,674.969 749.347,675.684 749.321,676.404C749.242,678.61 747.386,680.336 745.179,680.256C742.973,680.177 741.247,678.321 741.327,676.115C742.759,636.501 755.464,612.642 772.222,598.522C787.979,585.246 807.469,580.516 825.218,579.717C840.197,579.042 853.894,581.159 862.873,583.095C866.058,583.336 868.774,583.62 870.903,583.876L915.683,496.7C916.211,495.672 917.123,494.97 918.154,494.679L922.512,476.927C922.581,476.687 922.652,476.448 922.725,476.207Z" style="fill:rgb(255,213,126);"/>
                    </g>
                    <path d="M366.929,786.937L493.976,747.841C496.086,747.192 497.272,744.952 496.622,742.842C495.973,740.732 493.733,739.546 491.623,740.195L364.576,779.29C362.466,779.94 361.28,782.18 361.929,784.29C362.579,786.4 364.819,787.586 366.929,786.937Z" style="fill:rgb(211,1,1);"/>
                    <path d="M920.96,819.594C920.96,819.594 859.737,782.669 815.48,760.263C795.832,750.316 779.325,743.345 772.508,743.119C770.302,743.046 768.451,744.778 768.378,746.985C768.305,749.191 770.037,751.042 772.243,751.115C778.556,751.324 793.673,758.19 811.867,767.4C855.907,789.696 916.828,826.444 916.828,826.444C918.718,827.585 921.179,826.976 922.319,825.085C923.459,823.195 922.85,820.734 920.96,819.594Z" style="fill:rgb(211,1,1);"/>
                </g>
                <g>
                    <path d="M486.223,742.36C486.223,742.36 610.82,889.937 790.415,748.457C790.415,748.457 758.979,735.517 728.499,728.312L734.455,620.489C748.197,621.364 767.259,588.309 740.749,574.449C732.616,570.197 715.904,579.642 710.358,602.36C710.358,602.36 651.738,601.446 622.707,545.961C622.707,545.961 594.91,575.028 562.264,569.172C556.2,591.906 549.686,613.943 551.936,649.552C552.904,667.45 565.983,682.365 583.601,685.663C591.092,687.127 597.167,688.265 597.167,688.265L596.857,715.606C596.857,715.606 530.939,725.09 486.223,742.36Z" style="fill:rgb(183,77,47);"/>
                    <g transform="matrix(-8.62318,-2.81317,-0.310147,0.950689,7311.74,2106.36)">
                        <path d="M736.264,731.171L737.112,731.5L736.67,749.956C736.612,752.101 736.373,753.418 736.137,752.895C735.9,752.373 735.755,750.207 735.813,748.062L736.264,731.171Z" style="fill:rgb(149,42,43);"/>
                    </g>
                    <path d="M597.167,688.265C592.059,688.484 613.7,688.929 642.003,686.878C643.372,686.779 644.607,687.696 644.908,689.035C645.209,690.374 644.484,691.732 643.204,692.227C624.153,699.602 597.117,710.069 597.117,710.069L597.167,688.265Z" style="fill:rgb(149,42,43);"/>
                </g>
            </g>
            <g>
                <g transform="matrix(0.854869,0.0441328,-0.0515565,0.99867,108.288,-31.559)">
                    <rect x="666.349" y="914.397" width="78.324" height="670.341" style="fill:rgb(129,164,232);"/>
                </g>
                <path d="M901.394,935.174L941.121,456.27C941.394,452.969 944.296,450.512 947.596,450.786C950.896,451.06 953.353,453.961 953.079,457.262L912.845,942.289C912.711,943.9 911.934,945.388 910.688,946.418C909.443,947.448 907.835,947.931 906.228,947.759L356.096,888.96C352.803,888.608 350.415,885.649 350.767,882.356C351.119,879.063 354.078,876.676 357.371,877.028L901.394,935.174Z" style="fill:rgb(129,164,232);"/>
                <path d="M397.113,419.974L362.717,883.438C362.472,886.74 359.592,889.223 356.289,888.977C352.987,888.732 350.505,885.852 350.75,882.55L385.591,413.081C385.71,411.49 386.456,410.012 387.666,408.973C388.876,407.934 390.45,407.419 392.041,407.543L947.566,450.784C950.867,451.041 953.339,453.93 953.082,457.231C952.825,460.533 949.936,463.004 946.634,462.747L397.113,419.974Z" style="fill:rgb(129,164,232);"/>
            </g>
        </g>
        <g>
            <g transform="matrix(1,0,0,1,-356.87,98.6538)">
                <path d="M985.398,1267.49C985.398,1267.49 958.424,1253.95 957.714,1279.4L973.887,1306.78C973.887,1306.78 949.108,1302.8 949.552,1322.03C949.552,1322.03 951.108,1331.08 962.653,1347.51L966.802,1354.21C966.802,1354.21 935.682,1341.97 941.065,1373.27L956.161,1393.97C956.161,1393.97 927.607,1391.93 932.7,1410.43L965.566,1460.73C965.566,1460.73 978.311,1456.16 977.738,1445.45L964.428,1406.33C964.428,1406.33 990.971,1417.81 990.066,1393.26L977.738,1370.94C977.738,1370.94 1004.8,1364.08 996.053,1343.58L985.398,1320.68C985.398,1320.68 1013.93,1320.42 1003.85,1297.31L985.398,1267.49Z" style="fill:white;"/>
            </g>
            <g transform="matrix(0.850289,-0.526315,0.526315,0.850289,-684.541,551.246)">
                <path d="M691.597,1383.99C691.597,1373.37 682.978,1364.75 672.363,1364.75C661.748,1364.75 653.13,1373.37 653.13,1383.99C653.13,1383.99 653.13,1419.2 653.13,1419.2C653.13,1421.41 654.922,1423.2 657.13,1423.2C659.338,1423.2 661.13,1421.41 661.13,1419.2L661.13,1383.99C661.13,1377.79 666.163,1372.75 672.363,1372.75C678.563,1372.75 683.597,1377.79 683.597,1383.99C683.597,1386.19 685.389,1387.99 687.597,1387.99C689.804,1387.99 691.597,1386.19 691.597,1383.99Z"/>
            </g>
            <g transform="matrix(0.850289,-0.526315,0.526315,0.850289,-684.541,551.246)">
                <path d="M653.13,1419.2C653.13,1429.82 661.748,1438.44 672.363,1438.44C682.978,1438.44 691.597,1429.82 691.597,1419.2C691.597,1419.2 691.597,1383.99 691.597,1383.99C691.597,1381.78 689.804,1379.99 687.597,1379.99C685.389,1379.99 683.597,1381.78 683.597,1383.99L683.597,1419.2C683.597,1425.4 678.563,1430.44 672.363,1430.44C666.163,1430.44 661.13,1425.4 661.13,1419.2C661.13,1417 659.338,1415.2 657.13,1415.2C654.922,1415.2 653.13,1417 653.13,1419.2Z"/>
            </g>
            <g transform="matrix(0.850289,-0.526315,0.526315,0.850289,-692.201,597.752)">
                <path d="M691.597,1383.99C691.597,1373.37 682.978,1364.75 672.363,1364.75C661.748,1364.75 653.13,1373.37 653.13,1383.99L653.13,1419.2C653.13,1421.41 654.922,1423.2 657.13,1423.2C659.338,1423.2 661.13,1421.41 661.13,1419.2L661.13,1383.99C661.13,1377.79 666.163,1372.75 672.363,1372.75C678.563,1372.75 683.597,1377.79 683.597,1383.99C683.597,1386.19 685.389,1387.99 687.597,1387.99C689.804,1387.99 691.597,1386.19 691.597,1383.99Z"/>
            </g>
            <g transform="matrix(0.850289,-0.526315,0.526315,0.850289,-692.201,597.752)">
                <path d="M653.13,1419.2C653.13,1429.82 661.748,1438.44 672.363,1438.44C682.978,1438.44 691.597,1429.82 691.597,1419.2C691.597,1419.2 691.597,1383.99 691.597,1383.99C691.597,1381.78 689.804,1379.99 687.597,1379.99C685.389,1379.99 683.597,1381.78 683.597,1383.99L683.597,1419.2C683.597,1425.4 678.563,1430.44 672.363,1430.44C666.163,1430.44 661.13,1425.4 661.13,1419.2C661.13,1417 659.338,1415.2 657.13,1415.2C654.922,1415.2 653.13,1417 653.13,1419.2Z"/>
            </g>
            <g transform="matrix(0.850289,-0.526315,0.526315,0.850289,-700.688,640.99)">
                <path d="M691.597,1383.99C691.597,1373.37 682.978,1364.75 672.363,1364.75C661.748,1364.75 653.13,1373.37 653.13,1383.99C653.13,1384.05 653.623,1416.35 653.623,1416.35C653.657,1418.55 655.477,1420.32 657.684,1420.28C659.891,1420.25 661.656,1418.43 661.622,1416.22L661.129,1383.92C661.13,1377.79 666.163,1372.75 672.363,1372.75C678.563,1372.75 683.597,1377.79 683.597,1383.99C683.597,1386.19 685.389,1387.99 687.597,1387.99C689.804,1387.99 691.597,1386.19 691.597,1383.99Z"/>
            </g>
            <g transform="matrix(0.850289,-0.526315,0.526315,0.850289,-700.688,640.99)">
                <path d="M653.623,1416.29C653.623,1422.34 656.356,1428.97 660.725,1433.31C663.915,1436.48 667.941,1438.44 672.363,1438.44C682.978,1438.44 691.597,1429.82 691.597,1419.2C691.597,1419.2 691.597,1383.99 691.597,1383.99C691.597,1381.78 689.804,1379.99 687.597,1379.99C685.389,1379.99 683.597,1381.78 683.597,1383.99L683.597,1419.2C683.597,1425.4 678.563,1430.44 672.363,1430.44C670.059,1430.44 668.023,1429.28 666.361,1427.63C663.449,1424.74 661.623,1420.32 661.623,1416.29C661.623,1414.08 659.831,1412.29 657.623,1412.29C655.415,1412.29 653.623,1414.08 653.623,1416.29Z"/>
            </g>
            <g transform="matrix(0.850289,-0.526315,0.526315,0.850289,-709.175,684.229)">
                <path d="M691.594,1383.78C692.115,1389.25 690.808,1400.13 688.873,1409.11C688.408,1411.27 686.279,1412.64 684.12,1412.18C681.962,1411.71 680.588,1409.59 681.053,1407.43C682.82,1399.23 684.138,1389.28 683.619,1384.41C683.604,1384.27 683.597,1384.13 683.597,1383.99C683.597,1377.79 678.563,1372.75 672.363,1372.75C666.163,1372.75 661.13,1377.79 661.13,1383.99C661.13,1386.19 659.338,1387.99 657.13,1387.99C654.922,1387.99 653.13,1386.19 653.13,1383.99C653.13,1373.37 661.748,1364.75 672.363,1364.75C682.908,1364.75 691.483,1373.26 691.594,1383.78Z"/>
            </g>
            <g transform="matrix(0.850289,-0.526315,0.526315,0.850289,-709.175,684.229)">
                <path d="M653.13,1383.99L653.13,1419.2C653.13,1424.65 653.022,1431.09 654.394,1435.48C655.796,1439.97 658.561,1442.74 662.918,1443.04C665.592,1443.22 669.028,1442.01 672.506,1439.13C678.79,1433.94 685.882,1422.99 688.873,1409.11C689.338,1406.95 687.964,1404.82 685.806,1404.36C683.648,1403.89 681.518,1405.27 681.053,1407.43C678.864,1417.58 674.228,1425.96 669.555,1430.94C668.174,1432.41 666.81,1433.56 665.515,1434.31C664.75,1434.76 664.077,1435.1 663.46,1435.06C662.978,1435.03 662.72,1434.67 662.5,1434.26C662.077,1433.47 661.822,1432.49 661.628,1431.4C660.974,1427.76 661.13,1423.18 661.13,1419.2C661.13,1419.2 661.13,1383.99 661.13,1383.99C661.13,1381.78 659.338,1379.99 657.13,1379.99C654.922,1379.99 653.13,1381.78 653.13,1383.99Z"/>
            </g>
            <path d="M674.198,1473.06C660.318,1442.55 663.097,1404 665.474,1371.38C666.816,1352.95 668.583,1334.43 672.881,1316.42C673.902,1312.15 675.784,1306.5 679.041,1302.88C681.785,1299.82 685.393,1298.01 690.093,1298.61C694.126,1299.13 697.544,1301.19 700.358,1304.11C703.973,1307.87 706.559,1313.09 708.291,1317.37C715.807,1335.96 719.204,1354.67 728.918,1372.63C741.395,1395.71 755.016,1418.19 762.971,1443.36C784.844,1512.55 784.106,1611.14 782.618,1682.84C782.572,1685.04 780.743,1686.8 778.536,1686.75C776.328,1686.71 774.574,1684.88 774.619,1682.67C776.092,1611.75 776.98,1514.22 755.343,1445.77C747.542,1421.09 734.117,1399.07 721.881,1376.44C712.02,1358.2 708.503,1339.24 700.874,1320.37C699.697,1317.46 698.09,1313.99 695.873,1311.14C694.084,1308.85 691.916,1306.91 689.075,1306.54C686.74,1306.24 685.211,1307.69 684.047,1309.46C682.294,1312.12 681.306,1315.59 680.663,1318.28C676.465,1335.87 674.763,1353.96 673.453,1371.96C671.207,1402.78 668.239,1439.14 680.803,1468.22L681.145,1468.03C685.723,1465.56 690.719,1464.53 695.853,1466.02C704.746,1468.58 706.858,1477.05 704.632,1483.72C703.069,1488.4 699.347,1491.98 694.751,1492.46C691.96,1492.75 688.692,1491.96 685.287,1489.14C683.226,1487.44 681.386,1485.41 679.856,1483.22C679.219,1482.31 678.613,1481.37 678.036,1480.42C675.971,1482.46 674.146,1484.64 672.625,1486.58C670.836,1488.86 669.197,1491.3 667.852,1493.87C667.491,1494.56 667.259,1496.25 666.991,1497.06C666.656,1498.07 666.172,1498.73 665.859,1499.05C664.395,1500.59 662.797,1500.62 661.379,1500.06C660.736,1499.8 659.49,1499.22 658.874,1497.26C658.44,1495.87 658.801,1494.42 659.699,1493.41C659.991,1492.33 660.444,1490.77 660.766,1490.15C662.337,1487.16 664.244,1484.3 666.333,1481.64C668.472,1478.92 671.15,1475.81 674.198,1473.06ZM684.358,1475.4C685,1476.51 685.683,1477.59 686.415,1478.64C687.535,1480.24 688.878,1481.73 690.387,1482.98C691.694,1484.06 692.851,1484.61 693.923,1484.5C695.509,1484.34 696.504,1482.8 697.043,1481.19C697.97,1478.41 697.335,1474.77 693.633,1473.7C690.366,1472.76 687.237,1473.7 684.358,1475.4Z"/>
        </g>
        <rect x="595.861" y="1655.19" width="213.952" height="175.817" style="fill:rgb(144,205,214);"/>
    </g>
    <g id="SIGN-3" serif:id="SIGN 3" transform="matrix(1,0,0,1,356.87,-98.6538)">
        <g id="Sign">
            <path d="M793.285,684.48L730.097,1130.09L1236.03,1199.64L1288.29,757.536C1288.29,757.536 793.787,691.515 793.285,684.48Z" style="fill:white;"/>
            <g id="HEAD2" serif:id="HEAD">
                <g transform="matrix(1,0,0,1,-356.87,98.6538)">
                    <path d="M1584.74,1078.22C1582.15,1076 1579.43,1074 1576.36,1072.69C1567.12,1068.73 1557.23,1070.36 1548.58,1075.04C1545.8,1076.55 1543.08,1078.22 1540.49,1080.03C1540,1080.38 1538.85,1081 1537.9,1081.5C1536.44,1083.83 1533.5,1084.91 1530.8,1083.94C1528.34,1083.06 1527.4,1081.49 1526.92,1080.29C1526.3,1078.77 1526.24,1077.12 1527.02,1075.37C1527.39,1074.55 1528.14,1073.43 1529.51,1072.45C1530.51,1071.74 1532.67,1070.86 1533.6,1070.21C1536.57,1068.12 1539.68,1066.21 1542.87,1064.49C1554.75,1058.06 1568.38,1056.22 1581.08,1061.65C1582.96,1062.46 1584.74,1063.46 1586.45,1064.58L1584.74,1078.22ZM1505.17,1065.33C1509.09,1065.33 1512.27,1068.51 1512.27,1072.43C1512.27,1076.35 1509.09,1079.53 1505.17,1079.53C1501.25,1079.53 1498.07,1076.35 1498.07,1072.43C1498.07,1068.51 1501.25,1065.33 1505.17,1065.33ZM1396.75,1068.31L1396.75,1068.31C1397.43,1067.29 1399.12,1065.68 1399.75,1064.74C1401.77,1061.73 1403.99,1058.83 1406.34,1056.07C1415.1,1045.79 1427.15,1039.16 1440.96,1039.65C1448.63,1039.93 1456.02,1043.24 1463.38,1045.93C1468.81,1047.91 1474.22,1049.65 1479.91,1047.57C1488.34,1044.48 1494.04,1036.53 1500.56,1030.28C1509.14,1022.07 1518.65,1016.16 1533.01,1019.81C1536.22,1020.62 1538.16,1023.89 1537.35,1027.1C1536.53,1030.31 1533.27,1032.25 1530.06,1031.43C1520.59,1029.03 1514.51,1033.54 1508.86,1038.95C1501.15,1046.32 1493.99,1055.19 1484.04,1058.83C1475.53,1061.95 1467.38,1060.17 1459.27,1057.2C1453.09,1054.94 1446.97,1051.88 1440.53,1051.65C1430.48,1051.29 1421.85,1056.38 1415.47,1063.85C1413.74,1065.88 1412.1,1068 1410.57,1070.19L1396.75,1068.31ZM1309.31,1034.77C1313.23,1034.77 1316.41,1037.96 1316.41,1041.88C1316.41,1045.79 1313.23,1048.97 1309.31,1048.97C1305.39,1048.97 1302.21,1045.79 1302.21,1041.88C1302.21,1037.96 1305.39,1034.77 1309.31,1034.77ZM1106.05,950.336C1167.69,947.379 1229,946.498 1288.71,955.505C1290.89,955.835 1292.39,957.874 1292.07,960.057C1291.74,962.24 1289.7,963.745 1287.51,963.416C1236.35,955.697 1184,955.327 1131.27,957.264C1139.41,961.433 1146.13,967.848 1150.15,976.577C1153.37,983.549 1153.75,991.641 1154.67,999.425C1155.34,1005.16 1156.23,1010.77 1160.66,1014.91C1167.21,1021.04 1176.88,1022.54 1185.4,1025.55C1194.47,1028.76 1202.48,1033.19 1206.9,1042.46L1188.46,1039.95C1186.28,1038.7 1183.88,1037.74 1181.4,1036.87C1171.35,1033.31 1160.2,1030.91 1152.46,1023.68C1145.84,1017.49 1143.76,1009.41 1142.75,1000.83C1141.98,994.298 1141.95,987.452 1139.26,981.603C1135.05,972.475 1126.61,967.058 1117.06,964.739C1113.99,963.992 1110.85,963.41 1107.71,963.022C1107.11,962.948 1105.85,962.643 1104.81,962.376C1104.14,962.566 1103.45,962.633 1102.77,962.585L1103.32,958.477C1101.03,958.59 1098.73,958.705 1096.44,958.823C1094.23,958.936 1092.35,957.237 1092.24,955.033C1092.12,952.828 1093.82,950.946 1096.03,950.833C1098.82,950.69 1101.62,950.55 1104.41,950.415L1104.47,950.021C1104.53,950.026 1104.58,950.033 1104.64,950.04C1105.03,950.086 1105.53,950.199 1106.05,950.336ZM1573.65,1024.41C1577.57,1024.41 1580.75,1027.59 1580.75,1031.51C1580.75,1035.43 1577.57,1038.61 1573.65,1038.61C1569.73,1038.61 1566.55,1035.43 1566.55,1031.51C1566.55,1027.59 1569.73,1024.41 1573.65,1024.41ZM1445.16,1015.81C1449.08,1015.81 1452.26,1018.99 1452.26,1022.91C1452.26,1026.83 1449.08,1030.01 1445.16,1030.01C1441.24,1030.01 1438.06,1026.83 1438.06,1022.91C1438.06,1018.99 1441.24,1015.81 1445.16,1015.81ZM1116.25,1012.45C1120.17,1012.45 1123.35,1015.63 1123.35,1019.55C1123.35,1023.47 1120.17,1026.65 1116.25,1026.65C1112.33,1026.65 1109.15,1023.47 1109.15,1019.55C1109.15,1015.63 1112.33,1012.45 1116.25,1012.45ZM1443.48,973.307C1504.16,986.563 1552.97,1005.36 1598.17,1025.83C1600.18,1026.74 1602.55,1025.85 1603.46,1023.84C1604.37,1021.83 1603.48,1019.46 1601.47,1018.55C1555.81,997.862 1506.5,978.883 1445.19,965.492C1443.03,965.021 1440.9,966.389 1440.43,968.546C1439.96,970.703 1441.32,972.836 1443.48,973.307ZM1224.3,1019.6C1223.63,1022.27 1221.18,1024.22 1218.31,1024.13C1215.7,1024.06 1214.32,1022.86 1213.48,1021.87C1212.43,1020.62 1211.85,1019.07 1212.05,1017.17C1212.15,1016.27 1212.51,1014.97 1213.51,1013.61C1214.24,1012.63 1216.02,1011.12 1216.7,1010.21C1218.88,1007.31 1221.24,1004.52 1223.73,1001.89C1233.02,992.083 1245.4,986.095 1259.16,987.308C1266.81,987.983 1274.02,991.675 1281.23,994.747C1286.54,997.012 1291.85,999.029 1297.65,997.243C1306.22,994.6 1312.33,986.957 1319.17,981.061C1328.16,973.313 1337.98,967.903 1352.12,972.296C1355.29,973.278 1357.06,976.643 1356.07,979.805C1355.09,982.968 1351.73,984.738 1348.56,983.756C1339.23,980.859 1332.93,985.042 1327,990.152C1318.92,997.114 1311.31,1005.59 1301.18,1008.71C1292.52,1011.38 1284.47,1009.17 1276.52,1005.79C1270.47,1003.21 1264.52,999.828 1258.11,999.262C1248.09,998.379 1239.2,1003.01 1232.44,1010.14C1230.27,1012.44 1228.2,1014.87 1226.3,1017.4C1225.94,1017.88 1225.05,1018.83 1224.3,1019.6ZM1378.32,925.383C1375.66,926.104 1372.76,924.908 1371.44,922.365C1370.23,920.051 1370.6,918.254 1371.06,917.046C1371.64,915.511 1372.71,914.254 1374.47,913.505C1375.3,913.152 1376.61,912.83 1378.28,913.046C1379.5,913.202 1381.69,914.016 1382.81,914.167C1386.4,914.65 1389.99,915.353 1393.5,916.246C1406.59,919.573 1417.86,927.458 1423.51,940.064C1426.65,947.07 1426.94,955.165 1427.78,962.959C1428.39,968.704 1429.22,974.322 1433.61,978.51C1440.1,984.706 1449.75,986.311 1458.23,989.408C1469.38,993.48 1478.89,999.407 1481.95,1013.9C1482.64,1017.14 1480.57,1020.33 1477.33,1021.01C1474.09,1021.7 1470.9,1019.62 1470.21,1016.38C1468.19,1006.82 1461.47,1003.37 1454.12,1000.68C1444.1,997.022 1432.98,994.506 1425.32,987.188C1418.76,980.928 1416.77,972.826 1415.85,964.237C1415.15,957.697 1415.19,950.852 1412.56,944.974C1408.45,935.802 1400.07,930.297 1390.55,927.876C1387.48,927.097 1384.35,926.482 1381.21,926.06C1380.62,925.98 1379.35,925.661 1378.32,925.383ZM1195.67,968.146C1199.59,968.146 1202.78,971.328 1202.78,975.247C1202.78,979.166 1199.59,982.347 1195.67,982.347C1191.76,982.347 1188.57,979.166 1188.57,975.247C1188.57,971.328 1191.76,968.146 1195.67,968.146Z"/>
                </g>
                <path d="M916.985,1052.05C916.985,1052.05 957.924,1136.5 992.104,1141.54C992.104,1141.54 1019.65,1153.69 1132.07,1074.74L1087.04,1063.41L1102.9,981.71C1102.9,981.71 1158.21,967.507 1145.89,933.009C1143.54,926.428 1130.97,913.251 1114.04,928.276C1114.04,928.276 1116.99,912.377 1120.51,893.448C1123.51,877.298 1119.7,860.626 1110,847.375C1100.29,834.125 1085.54,825.473 1069.23,823.468C1055.92,821.83 1041.71,820.082 1027.9,818.382C984.309,813.019 944.626,844.001 939.254,887.586C933.567,933.723 926.955,987.37 924.064,1010.82C922.925,1020.06 925.095,1029.4 930.189,1037.19C934.783,1044.09 941.157,1051.75 948.98,1055.63L916.985,1052.05Z" style="fill:rgb(75,0,0);"/>
                <path d="M940.801,877.054C940.801,877.054 976.137,908.053 1028.57,867.162C1028.57,867.162 1028.42,904.915 1063.26,929.017C1063.26,929.017 1095.71,969.283 1057.7,989.233C1057.7,989.233 1033.92,1010.28 1001.42,979.453C1001.42,979.453 966.667,951.132 940.801,979.453C940.801,979.453 930.856,984.659 929.386,967.92C929.386,967.92 926.535,983.169 923.5,999.399C920.711,1014.31 924.081,1029.71 932.84,1042.1C941.599,1054.48 955.001,1062.79 969.989,1065.13C979.276,1066.52 989.756,1066.79 1001.42,1065.25C1011.97,1063.85 1074.87,1058.49 1104.58,975.282C1104.58,975.282 1112.68,934.496 1120.36,895.849C1123.82,878.432 1119.8,860.363 1109.28,846.058C1098.76,831.753 1082.71,822.531 1065.05,820.645C1050.27,819.066 1035.66,817.505 1024.17,816.278C999.914,813.687 975.901,823.015 959.751,841.304C951.909,850.358 944.856,862.043 940.801,877.054Z" style="fill:rgb(60,109,192);"/>
            </g>
            <g>
                <g transform="matrix(0.999436,-0.0335757,0.0335757,0.999436,-40.5117,37.8081)">
                    <path d="M1030.97,1171.24L959.823,1161.65L959.823,1595.24L1030.37,1595.24L1030.97,1171.24Z" style="fill:rgb(60,109,192);"/>
                </g>
                <path d="M737.198,1126.78L1231.02,1192.59C1234.31,1193.02 1236.62,1196.04 1236.18,1199.33C1235.74,1202.61 1232.72,1204.92 1229.44,1204.48L729.665,1137.88C728.087,1137.67 726.658,1136.84 725.691,1135.58C724.724,1134.31 724.299,1132.72 724.51,1131.14L784.467,681.516C784.905,678.233 787.925,675.924 791.208,676.361C794.49,676.799 796.8,679.819 796.362,683.102L737.198,1126.78Z" style="fill:rgb(60,109,192);"/>
                <path d="M1280.39,760.182L789.545,688.245C786.268,687.765 783.998,684.715 784.478,681.439C784.958,678.162 788.008,675.892 791.285,676.372L1287.96,749.163C1291.2,749.637 1293.46,752.618 1293.04,755.863L1236.18,1199.3C1235.76,1202.58 1232.75,1204.9 1229.47,1204.48C1226.18,1204.06 1223.86,1201.05 1224.28,1197.77L1280.39,760.182Z" style="fill:rgb(60,109,192);"/>
            </g>
        </g>
        <g id="HAND">
            <path d="M875.834,1690.41C875.834,1690.41 872.457,1372.43 922.584,1334.98C922.584,1334.98 957.727,1295.29 974.617,1274.42C974.617,1274.42 1009.83,1249.17 1003.25,1297.06C1003.25,1297.06 999.907,1343.09 974.617,1370.74C974.617,1370.74 994,1387.82 968.54,1463.01L972.764,1594.63L1041.9,1593.7L1037.12,1512.62C1037.12,1512.62 1018.25,1499.1 1037.12,1477.66C1037.12,1477.66 1014.15,1461.91 1037.12,1443.92C1037.12,1443.92 1007.68,1433.35 1028.04,1407.34C1028.04,1407.34 987.971,1389.6 1028.04,1356.87C1028.04,1356.87 1056.77,1328.49 1069.17,1343.29C1074.34,1349.46 1078.35,1360.19 1065.65,1374.15C1065.65,1374.15 1091.66,1378.11 1077.2,1411.87C1081.9,1409.5 1103.12,1425.3 1080.84,1448.92C1080.84,1448.92 1117.94,1458.23 1069.17,1500.09L1076.25,1691.42L875.834,1690.41Z" style="fill:rgb(183,77,47);"/>
            <g transform="matrix(1,0,0,1,2.18196,1.63264)">
                <path d="M1071.68,1376.19C1069.43,1374.41 1066.72,1373.25 1063.59,1372.61L1025.94,1405.7C1020.96,1412.08 1018.96,1417.13 1018.86,1421.86L1071.68,1376.19Z" style="fill:rgb(220,127,100);"/>
            </g>
            <path d="M1084.84,1415.31C1083.01,1413.23 1080.65,1411.76 1077.26,1411.42C1077.26,1411.42 1076.26,1412.34 1075.73,1412.82C1067.38,1420.38 1054.95,1431.15 1043.31,1439.33C1041.16,1440.83 1037.37,1443.45 1037.37,1443.45C1032.68,1447.82 1028.74,1451.88 1027.35,1457.27C1027.35,1457.27 1040.25,1451.25 1047.9,1445.88C1061.03,1436.66 1075.14,1424.22 1083.56,1416.5C1084,1416.09 1084.84,1415.31 1084.84,1415.31Z" style="fill:rgb(220,127,100);"/>
            <g transform="matrix(1,0,0,1,-1.02205,1.89365)">
                <path d="M1038.55,1518.5L1038.06,1511.02C1038.06,1511.02 1039.35,1510.93 1039.9,1510.88C1043.75,1510.47 1048.98,1509.65 1054,1507.98C1058.42,1506.5 1063.66,1503.71 1069.22,1499.36C1069.58,1499.09 1070.28,1498.52 1070.28,1498.52L1070.7,1508.28C1070.7,1508.28 1069.51,1509.08 1068.92,1509.46C1064.21,1512.5 1059.72,1514.55 1055.51,1515.83C1050.06,1517.5 1044.7,1518.13 1040.27,1518.3C1039.65,1518.33 1038.55,1518.5 1038.55,1518.5Z" style="fill:rgb(220,127,100);"/>
            </g>
            <path d="M1088.3,1452.79C1086.08,1451.14 1083.5,1449.78 1080.41,1448.83C1080.41,1448.83 1079.15,1449.8 1078.48,1450.31C1068.5,1457.94 1052.54,1469.56 1038.85,1476.95C1038.43,1477.18 1037.6,1477.62 1037.6,1477.62C1034.49,1479.87 1031.19,1485.35 1029.65,1490.01C1029.65,1490.01 1030.81,1489.5 1031.62,1489.18C1048.9,1482.34 1074.81,1463.19 1086.78,1453.97C1087.31,1453.55 1088.3,1452.79 1088.3,1452.79Z" style="fill:rgb(220,127,100);"/>
            <path d="M968.494,1462.43L969.413,1491.48C967.23,1497.91 963.883,1502.08 959.788,1507.54C957.85,1510.12 954.945,1513.17 951.706,1514.64C948.881,1515.93 945.819,1516.17 942.713,1514.69C939.993,1513.39 938.26,1511.62 937.21,1509.65C935.686,1506.8 935.589,1503.39 936.673,1499.86C938.832,1492.82 945.959,1485.25 950.298,1482.86C954.367,1480.61 958.922,1479.42 963.652,1479.05C964.338,1476.67 965.003,1474.29 965.705,1471.95C966.322,1469.89 967.784,1464.46 968.494,1462.43ZM961.081,1487.37C958.657,1487.86 956.33,1488.66 954.166,1489.86C951.022,1491.6 945.885,1497.1 944.321,1502.2C943.914,1503.53 943.694,1504.81 944.267,1505.89C944.615,1506.54 945.264,1507.04 946.167,1507.47C947.241,1507.99 948.266,1507.51 949.198,1506.92C950.889,1505.85 952.328,1504.15 953.388,1502.74C956.874,1498.09 959.206,1492.83 961.081,1487.37Z" style="fill:rgb(220,127,100);"/>
            <path d="M870.264,1831.23L868.623,1690.57L1080.12,1691.47L1083.35,1831.23L870.264,1831.23Z" style="fill:rgb(239,123,88);"/>
        </g>
    </g>
    <g id="SIGN-2" serif:id="SIGN 2" transform="matrix(1,0,0,1,356.87,-98.6538)">
        <g id="SIGN1" serif:id="SIGN">
            <path d="M118.9,908.827L565.656,801.975L635.786,1181.47L201.947,1285.2L118.9,908.827Z" style="fill:white;"/>
            <g>
                <path d="M186.392,1200.31C186.392,1200.31 237.384,1152.96 285.75,1127.65C285.75,1127.65 476.6,1062.32 630.257,1139.33L638.141,1179.12L206.688,1281.5L186.392,1200.31Z" style="fill:rgb(255,213,125);"/>
                <path d="M225.159,1241.04L236.021,1259.87C237.676,1262.73 236.691,1266.4 233.823,1268.06C230.955,1269.71 227.282,1268.73 225.627,1265.86L211.244,1240.93C210.365,1239.41 210.199,1237.58 210.789,1235.92C211.378,1234.27 212.665,1232.95 214.308,1232.33L241.242,1222.08C244.337,1220.91 247.806,1222.46 248.983,1225.56C250.16,1228.65 248.602,1232.12 245.507,1233.3L225.159,1241.04ZM331.057,1247.55C330.419,1246.49 330.102,1245.22 330.226,1243.9C330.535,1240.6 333.462,1238.17 336.759,1238.48L358.434,1240.51L356.987,1218.83C356.767,1215.52 359.27,1212.66 362.574,1212.44C365.879,1212.22 368.74,1214.72 368.961,1218.03L370.311,1238.26L331.057,1247.55ZM286.716,1225.58L306.514,1234.55C309.53,1235.92 310.869,1239.48 309.502,1242.49C308.136,1245.51 304.577,1246.85 301.561,1245.48L275.346,1233.6C273.745,1232.88 272.542,1231.48 272.056,1229.8C271.571,1228.11 271.85,1226.29 272.822,1224.82L288.743,1200.81C290.573,1198.04 294.299,1197.29 297.059,1199.12C299.819,1200.95 300.575,1204.67 298.745,1207.43L286.716,1225.58ZM423.228,1197.9L403.877,1188.01C400.928,1186.5 399.759,1182.88 401.267,1179.93C402.774,1176.98 406.392,1175.82 409.341,1177.32L434.965,1190.43C436.53,1191.23 437.666,1192.67 438.071,1194.38C438.477,1196.1 438.111,1197.9 437.072,1199.32L420.034,1222.56C418.076,1225.23 414.318,1225.8 411.647,1223.85C408.977,1221.89 408.398,1218.13 410.356,1215.46L423.228,1197.9ZM483.633,1211.46L475.026,1193.2C474.277,1191.61 474.263,1189.77 474.988,1188.17C475.713,1186.56 477.104,1185.36 478.793,1184.87L506.483,1176.9C509.665,1175.98 512.992,1177.82 513.909,1181C514.825,1184.19 512.986,1187.51 509.804,1188.43L488.885,1194.45L495.569,1208.64L483.633,1211.46ZM205.103,1183.8L215.805,1190.6L224.396,1170.63C225.705,1167.59 229.238,1166.18 232.279,1167.49C235.321,1168.8 236.728,1172.34 235.419,1175.38L224.043,1201.81C223.348,1203.43 221.98,1204.66 220.3,1205.18C218.62,1205.69 216.797,1205.45 215.313,1204.51L195.603,1191.98C198.786,1189.17 201.953,1186.44 205.103,1183.8ZM342.868,1181.26L360.733,1168.88C363.455,1166.99 367.196,1167.67 369.082,1170.39C370.968,1173.12 370.29,1176.86 367.568,1178.74L343.911,1195.14C342.466,1196.14 340.655,1196.45 338.955,1196C337.256,1195.55 335.84,1194.38 335.081,1192.79L322.65,1166.8C321.222,1163.81 322.487,1160.22 325.475,1158.8C328.462,1157.37 332.048,1158.63 333.476,1161.62L342.868,1181.26ZM266.247,1139.56C267.675,1139.47 269.138,1139.9 270.341,1140.86L292.806,1158.85C294.178,1159.95 294.999,1161.6 295.052,1163.36C295.105,1165.11 294.385,1166.8 293.081,1167.98L271.718,1187.32C269.262,1189.54 265.465,1189.35 263.243,1186.9C261.021,1184.44 261.21,1180.65 263.665,1178.42L279.805,1163.82L262.84,1150.23C260.518,1148.37 259.944,1145.13 261.353,1142.62C263.02,1141.56 264.651,1140.54 266.247,1139.56ZM560.036,1174.74L580.654,1167.87C583.795,1166.82 587.196,1168.52 588.244,1171.66C589.292,1174.8 587.593,1178.2 584.451,1179.25L557.15,1188.36C555.482,1188.91 553.654,1188.71 552.149,1187.8C550.644,1186.89 549.613,1185.37 549.33,1183.63L544.68,1155.19C544.146,1151.93 546.365,1148.84 549.633,1148.31C552.901,1147.77 555.988,1149.99 556.523,1153.26L560.036,1174.74ZM451.707,1138.94L433.277,1150.47C430.469,1152.22 426.764,1151.37 425.009,1148.56C423.253,1145.75 424.108,1142.05 426.916,1140.29L451.32,1125.03C452.811,1124.1 454.635,1123.87 456.312,1124.4C457.988,1124.93 459.347,1126.17 460.03,1127.79L471.219,1154.35C472.505,1157.4 471.071,1160.92 468.019,1162.2C464.968,1163.49 461.446,1162.06 460.16,1159.01L451.707,1138.94ZM608.449,1129.71C614.624,1132.11 619.164,1134.07 621.853,1135.29L623.017,1140.93C623.373,1142.65 622.955,1144.44 621.875,1145.83C620.794,1147.21 619.16,1148.06 617.403,1148.13L588.616,1149.39C585.307,1149.54 582.504,1146.97 582.359,1143.66C582.215,1140.35 584.783,1137.55 588.091,1137.4L609.84,1136.45L608.449,1129.71ZM516.464,1119.32L516.885,1141.05C516.949,1144.36 514.314,1147.1 511.003,1147.17C507.692,1147.23 504.952,1144.6 504.888,1141.29L504.33,1112.51C504.296,1110.75 505.035,1109.07 506.351,1107.9C507.667,1106.74 509.429,1106.21 511.17,1106.45L539.7,1110.49C542.979,1110.95 545.265,1113.99 544.801,1117.27C544.337,1120.55 541.298,1122.84 538.019,1122.37L516.464,1119.32Z" style="fill:rgb(220,127,100);"/>
                <path d="M312.306,1026.55C312.173,1026.11 311.254,1023.08 311.026,1022.21C309.762,1017.39 308.688,1012.52 307.896,1007.6C305.604,993.364 305.653,977.049 310.891,963.409C317.718,945.632 333.771,936.988 350.531,930.353C369.587,922.809 389.753,917.252 405.95,904.12C417.876,894.451 424.497,880.762 435.346,870.256C441.853,863.955 451.168,859.884 459.872,864.645C469.329,869.819 473.067,878.707 473.059,888.493C473.049,900.319 467.308,913.456 460.434,921.785C460.872,926.147 460.298,931.558 459.103,937.183C457.032,946.932 453.219,957.393 450.838,963.499C450.036,965.556 447.715,966.575 445.658,965.773C443.601,964.971 442.583,962.65 443.385,960.593C445.653,954.774 449.304,944.811 451.278,935.521C451.725,933.414 452.097,931.347 452.336,929.386C448.722,932.067 444.567,934.26 440.307,934.61C436.614,934.913 433.855,933.992 431.845,932.495C428.808,930.232 427.312,926.448 427.425,922.214C427.588,916.115 431.22,909.262 436.4,906.53C444.422,902.3 452.761,906.067 457.212,912.713C461.688,905.861 465.052,896.79 465.059,888.486C465.065,881.63 462.658,875.288 456.032,871.663C450.59,868.686 444.98,872.064 440.912,876.003C429.894,886.673 423.1,900.514 410.989,910.334C394.153,923.984 373.283,929.95 353.475,937.791C338.793,943.604 324.34,950.703 318.36,966.277C313.613,978.636 313.717,993.429 315.794,1006.33C316.545,1011 317.566,1015.61 318.764,1020.18C319.027,1021.19 319.844,1023.23 320.15,1024.88C320.417,1026.32 320.339,1027.62 320.034,1028.55C319.35,1030.65 317.09,1031.8 314.991,1031.11C313.05,1030.48 311.922,1028.5 312.306,1026.55ZM451.745,919.412C449.937,914.715 445.075,911 440.132,913.606C437.265,915.118 435.512,919.053 435.422,922.428C435.383,923.882 435.581,925.302 436.624,926.079C437.333,926.607 438.348,926.744 439.652,926.637C444.281,926.257 448.515,922.496 451.745,919.412Z"/>
                <path d="M285.75,1127.65L331.083,1105.69L321.382,1056.44C321.382,1056.44 296.997,1038.97 317.1,1026.54C317.1,1026.54 319.363,1021.02 335.847,1032.03C335.847,1032.03 357.936,1040.41 358.318,1009.37L357.497,973.618C357.497,973.618 419.67,992.829 456.203,948.672C456.203,948.672 468.819,994.327 477.97,1027.44C483.238,1046.51 473.143,1066.45 454.661,1073.5C443.62,1077.7 434.028,1081.36 434.028,1081.36L436.725,1101.67L464.222,1101.81C464.222,1101.81 446.417,1162.51 397.921,1171.59C350.955,1180.39 315.869,1145.96 285.75,1127.65Z" style="fill:rgb(171,73,74);"/>
                <path d="M331.051,1105.49L323.843,1109.11L327.187,1124C327.627,1126.16 329.741,1127.56 331.905,1127.12C334.068,1126.68 335.467,1124.56 335.026,1122.4L331.051,1105.49Z"/>
                <path d="M319.926,1055.53C323.848,1057.42 328.718,1059.52 333.249,1060.75C335.379,1061.33 336.638,1063.53 336.059,1065.66C335.48,1067.79 333.28,1069.05 331.15,1068.47C328.539,1067.76 325.824,1066.79 323.213,1065.73L321.382,1056.44C321.382,1056.44 320.827,1056.11 319.926,1055.53Z"/>
                <path d="M434.028,1081.36C420.634,1084.99 408.06,1085.81 395.884,1085.26C394.971,1085.22 394.176,1085.88 394.048,1086.79C393.92,1087.69 394.5,1088.55 395.388,1088.76C410.011,1092.83 429.139,1097.81 436.263,1098.2L434.028,1081.36Z"/>
            </g>
            <g id="SIGN2" serif:id="SIGN">
                <g transform="matrix(0.968512,-0.267565,0.276347,1.0003,-340.67,112.317)">
                    <rect x="388.157" y="1236.45" width="62.081" height="424.626" style="fill:rgb(60,109,192);"/>
                </g>
                <path d="M563.658,799.054L118.678,906.206L205.041,1282.59" style="fill:none;stroke:rgb(60,109,192);stroke-width:12px;"/>
                <path d="M205.041,1282.59L639.184,1180.77L563.658,799.054" style="fill:none;stroke:rgb(60,109,192);stroke-width:12px;"/>
            </g>
        </g>
        <g id="HAND1" serif:id="HAND">
            <path d="M363.751,1745.06C363.751,1745.06 311.063,1446.4 387.987,1414.43C393.138,1412.29 398.966,1408.77 420.752,1402.84L428.803,1429.19L489.435,1418.34L482.201,1393.25C482.201,1393.25 529.066,1396.85 537.037,1411.13C537.037,1411.13 549.631,1430.92 535.352,1445.72C535.352,1445.72 562.334,1462.75 542.62,1491.43C545.386,1492.54 566.415,1505.1 543.933,1540.58C543.933,1540.58 560.527,1565.26 526.97,1591.61C493.413,1617.95 484.27,1621.88 484.27,1621.88L499.478,1668.34L521.701,1662L526.652,1731.05C526.652,1731.05 361.73,1726.98 363.751,1745.06Z" style="fill:rgb(239,123,88);"/>
            <g transform="matrix(1,0,0,1,-356.87,98.6538)">
                <path d="M842.014,1523.1C842.014,1523.1 821.891,1532.89 810.092,1538.64C808.403,1539.46 807.352,1541.2 807.409,1543.07C807.466,1544.95 808.619,1546.62 810.355,1547.34C820.938,1551.75 833.734,1552.99 849.557,1550.73L842.014,1523.1ZM836.599,1489.96C836.599,1489.96 870.157,1475.95 896.605,1459C898.638,1457.7 900.63,1456.38 902.563,1455.04C902.791,1454.88 903.019,1454.73 903.245,1454.57C903.581,1454.33 904.677,1453.67 904.677,1453.67C904.209,1449.21 902.653,1445.35 900.705,1441.7C900.705,1441.7 899.998,1442.19 899.526,1442.53C898.699,1443.13 897.414,1444.06 896.605,1444.62C891.103,1448.44 885.031,1452.17 878.909,1455.69C855.907,1468.9 831.978,1478.88 831.978,1478.88C828.922,1480.16 827.476,1483.68 828.751,1486.73C830.027,1489.79 833.543,1491.23 836.599,1489.96ZM832.707,1443.16C832.707,1443.16 866.264,1429.15 892.712,1412.21C897.15,1409.36 901.385,1406.43 905.251,1403.46C906.285,1402.66 908.047,1401.39 908.047,1401.39C906.281,1397.66 903.533,1394.77 899.708,1392.78C899.708,1392.78 898.09,1393.91 897.131,1394.63C890.563,1399.57 882.83,1404.4 875.016,1408.89C852.015,1422.1 828.086,1432.09 828.086,1432.09C825.03,1433.36 823.584,1436.88 824.859,1439.93C826.134,1442.99 829.651,1444.44 832.707,1443.16ZM823.115,1398.04C823.115,1398.04 856.989,1384.82 883.824,1368.49C890.91,1364.18 901.326,1355.91 901.326,1355.91C898.715,1351.51 895.778,1349.38 892.527,1347.13C892.527,1347.13 875.796,1359.55 866.21,1364.77C842.908,1377.44 818.753,1386.86 818.753,1386.86C815.668,1388.07 814.141,1391.55 815.344,1394.63C816.548,1397.72 820.03,1399.25 823.115,1398.04ZM773.953,1339.67C773.953,1339.67 804.942,1338.83 831.53,1333.1C843.516,1330.51 854.613,1326.87 861.969,1322.06C864.739,1320.25 865.517,1316.52 863.704,1313.75C861.89,1310.98 858.168,1310.2 855.397,1312.02C846.799,1317.65 832.256,1321.11 817.961,1323.43C795.563,1327.08 773.63,1327.68 773.63,1327.68C770.319,1327.77 767.704,1330.53 767.794,1333.84C767.883,1337.15 770.643,1339.76 773.953,1339.67Z" style="fill:rgb(211,1,1);"/>
            </g>
            <g transform="matrix(1,0,0,1,-7.21929,-0.417019)">
                <path d="M350.312,1832.2L564.652,1832.2C564.652,1832.2 608.941,1781 556.389,1729.81L357.281,1729.81C342.654,1738.93 311.249,1789.92 350.312,1832.2Z" style="fill:rgb(253,87,73);"/>
            </g>
            <path d="M354.116,1831.78L345.877,1818.9C342.251,1813.23 343.91,1805.68 349.58,1802.06C355.25,1798.43 362.798,1800.09 366.424,1805.76L383.069,1831.78L354.116,1831.78ZM447.981,1831.78C448.213,1831.15 448.5,1830.54 448.844,1829.93L464.28,1802.94C467.62,1797.1 475.077,1795.06 480.92,1798.4C486.763,1801.75 488.794,1809.2 485.453,1815.05L475.882,1831.78L447.981,1831.78ZM548.221,1803.66L521.548,1787.67C515.775,1784.21 508.279,1786.09 504.819,1791.86C501.359,1797.64 503.237,1805.13 509.01,1808.59L535.682,1824.58C541.456,1828.04 548.952,1826.16 552.412,1820.39C555.872,1814.61 553.994,1807.12 548.221,1803.66ZM419.382,1804.06L420.336,1772.97C420.543,1766.25 415.249,1760.62 408.521,1760.41C401.794,1760.2 396.164,1765.5 395.958,1772.23L395.003,1803.31C394.797,1810.04 400.091,1815.66 406.818,1815.87C413.546,1816.08 419.175,1810.78 419.382,1804.06ZM330.707,1755.61L355.078,1748.88C361.566,1747.09 368.287,1750.91 370.077,1757.4C371.867,1763.88 368.052,1770.61 361.564,1772.4L331.588,1780.66C329.143,1781.34 326.665,1781.22 324.43,1780.46C325.117,1771.46 327.512,1763 330.707,1755.61ZM557.163,1738.04C563.198,1745.36 567.404,1752.62 570.201,1759.68C569.387,1760.08 568.513,1760.4 567.591,1760.63L537.351,1767.87C530.805,1769.44 524.218,1765.4 522.649,1758.86C521.081,1752.31 525.121,1745.72 531.666,1744.15L557.163,1738.04ZM483.38,1729.39L488.816,1750.18C490.519,1756.7 486.614,1763.37 480.102,1765.07C473.591,1766.77 466.922,1762.87 465.219,1756.35L458.17,1729.39L483.38,1729.39ZM434.918,1729.39C436.438,1732.41 436.707,1736.04 435.355,1739.41C432.856,1745.66 425.753,1748.71 419.503,1746.21L390.631,1734.66C387.974,1733.6 385.896,1731.7 384.578,1729.39L434.918,1729.39Z" style="fill:white;"/>
        </g>
    </g>
    <g id="SIGN-1" serif:id="SIGN 1">
        <g id="SIGN3" serif:id="SIGN" transform="matrix(1,0,0,1,387.219,-97.7133)">
            <path d="M1205.77,442.824L1131.44,820.056L1651.93,915.353L1716.54,536.109L1205.77,442.824Z" style="fill:white;"/>
            <path d="M1655.61,863.85C1655.61,863.85 1366.05,718.668 1143.22,746.107L1129.69,817.696L1646.01,915.676L1655.61,863.85Z" style="fill:rgb(144,205,214);"/>
            <path d="M1583.06,831.77C1587.18,833.588 1591.3,835.433 1595.36,837.274C1595.91,844.149 1597.15,850.992 1598.84,857.625C1605.33,883.046 1621.74,902.223 1643.04,914.658L1616.3,909.673C1602.55,896.768 1592.25,880.319 1587.22,860.592C1584.83,851.23 1583.29,841.486 1583.06,831.77ZM1527.96,810.261C1531.38,811.234 1535.22,812.489 1539.38,813.965C1538.93,815.214 1538.48,816.459 1538.02,817.7C1534.43,827.413 1530.21,836.759 1524.83,845.629C1515.31,861.329 1502.03,874.834 1486.79,885.526L1469.57,882.315C1487.73,871.793 1503.81,857.161 1514.57,839.409C1519.55,831.195 1523.44,822.533 1526.76,813.539C1527.17,812.449 1527.57,811.357 1527.96,810.261ZM1132.08,812.355C1132.58,811.9 1133.21,811.483 1134.01,811.126C1134.39,810.956 1134.78,810.829 1135.17,810.742C1135.84,810.508 1136.95,810.122 1137.4,809.988C1139.56,809.334 1141.74,808.765 1143.94,808.257C1149.83,806.897 1155.77,805.731 1161.73,804.72C1178.75,801.831 1195.95,800.386 1213.22,800.655C1268.24,801.511 1308.56,815.929 1339.66,858.095L1321.42,854.693C1293.88,824.017 1258.92,813.367 1213.03,812.653C1196.5,812.396 1180.03,813.785 1163.74,816.551C1158.01,817.522 1152.3,818.642 1146.64,819.949C1145.01,820.325 1143.39,820.738 1141.79,821.202L1140.69,820.997C1141.57,820.25 1142.01,819.402 1142.14,818.523C1141.88,819.287 1141.47,819.999 1140.93,820.608C1140.81,820.735 1140.69,820.857 1140.57,820.975L1130.82,819.158L1132.08,812.355ZM1490.03,801.333C1491.84,803.153 1492.34,806.012 1491.06,808.393C1485.22,819.328 1478.52,829.377 1468.75,837.268C1435.25,864.333 1382.09,864.495 1352.68,831.161C1342.8,819.952 1335.17,805.895 1330.55,791.707C1329.17,787.454 1327.92,783.13 1326.96,778.759C1326.79,777.995 1326.87,776.558 1326.97,775.488C1326.37,774.034 1326.33,772.347 1327.01,770.793C1328.34,767.76 1331.88,766.376 1334.92,767.705C1337.16,768.688 1338.38,770.338 1338.9,772.486C1339.12,773.448 1338.91,775.8 1338.81,776.748C1339.67,780.544 1340.76,784.298 1341.96,787.995C1346.08,800.656 1352.86,813.22 1361.68,823.224C1386.89,851.8 1432.49,851.135 1461.21,827.932C1469.7,821.074 1475.4,812.242 1480.48,802.736C1481.23,801.327 1482.47,800.341 1483.88,799.873L1490.03,801.333ZM1170.85,743.692C1175.02,745.33 1179.13,746.707 1182.76,747.888C1213.65,757.957 1244.66,756.912 1275.29,750.367L1300.48,756.345C1260.48,767.966 1219.66,772.537 1179.04,759.298C1169.81,756.29 1158.08,751.854 1148.76,745.691C1154.12,744.614 1161.9,743.995 1170.85,743.692ZM1147.46,728.799C1148.72,730.42 1150.23,731.929 1151.92,733.334C1149.24,736.146 1146.96,738.665 1145.26,740.759L1144.86,742.895C1144.6,742.686 1144.34,742.476 1144.08,742.264C1144.43,741.79 1144.83,741.287 1145.26,740.759L1147.46,728.799Z" style="fill:white;"/>
            <path d="M1255.14,745.001C1255.14,745.001 1387.63,879.199 1520.85,807.696C1520.85,807.696 1475.84,793.26 1466.81,789.789L1470.64,751.917C1470.64,751.917 1477.23,749.674 1483.78,747.446C1492.83,744.366 1500.43,738.052 1505.11,729.715C1526.06,692.69 1525.52,658.725 1524.73,626.267C1524.5,612.398 1518.33,599.295 1507.79,590.279C1489.53,574.765 1456.22,555.153 1407.77,560.057C1391.72,561.584 1376.96,569.535 1366.86,582.104C1356.17,595.406 1344.88,616.539 1342.91,647.485C1342.91,647.485 1331.45,631.079 1316.95,646.682C1311.1,652.979 1312.01,678.229 1337.39,686.637L1328.12,754.704L1255.14,745.001Z" style="fill:rgb(72,40,39);"/>
            <path d="M1348.34,617.346C1347.73,619.313 1342.64,649.063 1342.64,649.063C1342.64,649.063 1344.73,657.263 1356.55,659.095C1392.57,664.684 1377.25,615.474 1430.97,610.267C1455.58,607.881 1470.32,618.63 1496.74,625.43C1503.62,627.203 1528.38,633.046 1523.4,614.527C1522.75,612.118 1521.46,608.133 1517.85,601.823C1517.85,601.823 1484.44,550.992 1406.95,560.037C1391.3,561.772 1376.97,569.612 1367.07,581.852C1360.22,590.293 1353.11,601.958 1348.34,617.346Z" style="fill:rgb(171,73,74);"/>
            <path d="M1471.73,751.17C1471.73,751.17 1441.16,753.411 1408.28,734.87C1406.38,733.808 1404,734.199 1402.54,735.813C1401.08,737.426 1400.93,739.835 1402.18,741.618C1415.19,760.049 1438.19,785.53 1466.82,787.789L1471.73,751.17Z"/>
            <path d="M1335.93,696.001C1335.93,696.001 1339.38,695.054 1343.14,694.018C1344.41,693.67 1345.3,692.532 1345.33,691.219C1345.36,689.906 1344.52,688.729 1343.28,688.322C1340.81,687.521 1338.61,686.805 1337.77,686.531C1337.68,686.502 1337.58,686.513 1337.5,686.563C1337.42,686.613 1337.36,686.696 1337.35,686.79C1337.08,688.566 1335.93,696.001 1335.93,696.001Z"/>
            <g>
                <path d="M1641.2,908.657L1710.54,534.61C1711.14,531.354 1714.27,529.2 1717.53,529.804C1720.79,530.407 1722.94,533.541 1722.34,536.797L1651.9,916.769C1651.61,918.338 1650.71,919.727 1649.39,920.628C1648.08,921.529 1646.45,921.868 1644.89,921.57L1128.57,823.591C1125.31,822.974 1123.17,819.831 1123.79,816.578C1124.41,813.324 1127.55,811.184 1130.81,811.802L1641.2,908.657Z" style="fill:rgb(60,109,192);"/>
                <path d="M1206.81,441.978L1135.58,818.811C1134.97,822.065 1131.83,824.207 1128.57,823.592C1125.32,822.977 1123.18,819.836 1123.79,816.582L1196.14,433.815C1196.43,432.244 1197.35,430.857 1198.67,429.961C1199.99,429.065 1201.62,428.734 1203.19,429.041L1717.59,529.815C1720.84,530.452 1722.96,533.607 1722.32,536.857C1721.69,540.106 1718.53,542.228 1715.28,541.591L1206.81,441.978Z" style="fill:rgb(60,109,192);"/>
                <g transform="matrix(0.883421,0.191199,-0.246878,1.14068,423.967,-495.013)">
                    <rect x="1312.45" y="964.325" width="78.164" height="514.232" style="fill:rgb(60,109,192);"/>
                </g>
            </g>
        </g>
        <g id="SIGN-11" serif:id="SIGN 1" transform="matrix(1,0,0,1,387.219,-97.7133)">
            <g id="HAND2" serif:id="HAND">
                <g transform="matrix(1.04371,0,0,1,-44.7926,-5.40111)">
                    <path d="M1135.3,1836.24C1077.18,1762.21 1147.55,1695.37 1147.55,1695.37C1083.04,1624.79 1147.08,1578.25 1147.08,1578.25C1093.3,1515.19 1156.11,1470.28 1156.11,1470.28L1307.91,1470.28C1307.91,1470.28 1370.72,1515.19 1316.94,1578.25C1316.94,1578.25 1380.98,1624.79 1316.47,1695.37C1316.47,1695.37 1386.84,1762.21 1328.72,1836.24L1135.3,1836.24Z" style="fill:rgb(255,213,126);"/>
                </g>
                <g transform="matrix(1,0,0,1,-387.219,97.7133)">
                    <path d="M1718.76,1695.91L1679.24,1711.59C1676.16,1712.81 1674.66,1716.3 1675.88,1719.38C1677.1,1722.46 1680.59,1723.97 1683.67,1722.75L1723.18,1707.07C1726.26,1705.85 1727.77,1702.36 1726.55,1699.28C1725.33,1696.2 1721.84,1694.69 1718.76,1695.91ZM1608.28,1708.1L1565.8,1706.63C1562.49,1706.52 1559.71,1709.11 1559.6,1712.42C1559.48,1715.73 1562.07,1718.51 1565.38,1718.62L1607.87,1720.1C1611.18,1720.21 1613.96,1717.62 1614.07,1714.31C1614.19,1711 1611.59,1708.22 1608.28,1708.1ZM1655.75,1649.6L1647.88,1691.37C1647.27,1694.63 1649.41,1697.77 1652.66,1698.38C1655.92,1698.99 1659.06,1696.85 1659.67,1693.59L1667.54,1651.82C1668.15,1648.56 1666.01,1645.42 1662.75,1644.81C1659.5,1644.2 1656.36,1646.34 1655.75,1649.6ZM1522.34,1679.6L1563.29,1668.17C1566.48,1667.28 1568.34,1663.97 1567.45,1660.78C1566.56,1657.59 1563.25,1655.72 1560.06,1656.61L1519.12,1668.04C1515.92,1668.93 1514.06,1672.24 1514.95,1675.43C1515.84,1678.62 1519.15,1680.48 1522.34,1679.6ZM1586.9,1618.39L1610.18,1653.97C1611.99,1656.74 1615.71,1657.52 1618.48,1655.7C1621.25,1653.89 1622.03,1650.17 1620.22,1647.4L1596.95,1611.82C1595.13,1609.05 1591.41,1608.27 1588.64,1610.09C1585.87,1611.9 1585.09,1615.62 1586.9,1618.39ZM1728.09,1624.12L1685.75,1620.31C1682.45,1620.01 1679.53,1622.45 1679.23,1625.75C1678.93,1629.05 1681.37,1631.96 1684.67,1632.26L1727.01,1636.07C1730.31,1636.36 1733.23,1633.93 1733.52,1630.63C1733.82,1627.33 1731.38,1624.41 1728.09,1624.12ZM1554.23,1610.69L1573.8,1572.96C1575.32,1570.02 1574.17,1566.39 1571.23,1564.87C1568.29,1563.34 1564.67,1564.49 1563.14,1567.43L1543.57,1605.17C1542.05,1608.11 1543.2,1611.73 1546.14,1613.26C1549.08,1614.78 1552.7,1613.63 1554.23,1610.69ZM1679.65,1571.91L1641.13,1589.91C1638.13,1591.31 1636.84,1594.88 1638.24,1597.88C1639.64,1600.88 1643.21,1602.18 1646.21,1600.78L1684.73,1582.79C1687.73,1581.38 1689.03,1577.81 1687.62,1574.81C1686.22,1571.81 1682.65,1570.51 1679.65,1571.91ZM1620.6,1562.84L1608.29,1522.15C1607.33,1518.98 1603.98,1517.19 1600.81,1518.14C1597.64,1519.1 1595.85,1522.46 1596.81,1525.62L1609.12,1566.32C1610.07,1569.49 1613.43,1571.28 1616.6,1570.32C1619.77,1569.36 1621.56,1566.01 1620.6,1562.84ZM1717.88,1502.07L1718.25,1544.57C1718.28,1547.88 1720.99,1550.55 1724.3,1550.52C1727.62,1550.49 1730.28,1547.78 1730.25,1544.47L1729.88,1501.96C1729.85,1498.65 1727.13,1495.98 1723.82,1496.01C1720.51,1496.04 1717.85,1498.75 1717.88,1502.07ZM1677.69,1497.63L1655.99,1534.19C1654.3,1537.03 1655.24,1540.72 1658.09,1542.41C1660.93,1544.1 1664.62,1543.16 1666.31,1540.31L1688.01,1503.76C1689.7,1500.91 1688.76,1497.23 1685.92,1495.54C1683.07,1493.85 1679.38,1494.79 1677.69,1497.63ZM1516.48,1529.67L1558.38,1536.83C1561.65,1537.39 1564.75,1535.19 1565.31,1531.92C1565.87,1528.66 1563.67,1525.56 1560.4,1525L1518.5,1517.84C1515.24,1517.29 1512.13,1519.48 1511.58,1522.75C1511.02,1526.01 1513.22,1529.11 1516.48,1529.67ZM1571.82,1493.22L1567.45,1450.93C1567.12,1447.64 1564.16,1445.24 1560.87,1445.58C1557.58,1445.92 1555.18,1448.87 1555.52,1452.17L1559.88,1494.45C1560.23,1497.75 1563.18,1500.15 1566.47,1499.81C1569.76,1499.47 1572.16,1496.52 1571.82,1493.22ZM1654.5,1459.53L1613.38,1470.31C1610.17,1471.15 1608.25,1474.43 1609.09,1477.63C1609.93,1480.83 1613.22,1482.75 1616.42,1481.91L1657.54,1471.13C1660.74,1470.3 1662.66,1467.01 1661.82,1463.81C1660.98,1460.61 1657.7,1458.69 1654.5,1459.53ZM1677.32,1422.75L1692.72,1462.38C1693.91,1465.46 1697.39,1467 1700.48,1465.8C1703.57,1464.6 1705.1,1461.12 1703.9,1458.03L1688.51,1418.41C1687.31,1415.32 1683.83,1413.79 1680.75,1414.99C1677.66,1416.18 1676.12,1419.66 1677.32,1422.75ZM1582.08,1403.89L1613.22,1432.83C1615.64,1435.09 1619.44,1434.95 1621.7,1432.52C1623.95,1430.1 1623.81,1426.3 1621.38,1424.04L1590.25,1395.1C1587.82,1392.85 1584.02,1392.98 1581.77,1395.41C1579.51,1397.84 1579.65,1401.63 1582.08,1403.89ZM1549.95,1384.6L1522.58,1417.13C1520.45,1419.66 1520.77,1423.45 1523.31,1425.58C1525.84,1427.71 1529.63,1427.38 1531.76,1424.85L1559.13,1392.32C1561.26,1389.79 1560.93,1386 1558.4,1383.87C1555.87,1381.73 1552.08,1382.06 1549.95,1384.6ZM1646.84,1367.35L1660.37,1367.48L1641.59,1402.73C1640.03,1405.65 1636.39,1406.76 1633.47,1405.2C1630.55,1403.64 1629.44,1400.01 1631,1397.08L1646.84,1367.35ZM1725.43,1385.02C1727.49,1387.88 1729.62,1391.3 1731.62,1395.32L1714.96,1404.21C1712.04,1405.77 1708.4,1404.67 1706.85,1401.75C1705.29,1398.82 1706.39,1395.19 1709.31,1393.63L1725.43,1385.02Z" style="fill:white;"/>
                </g>
                <g transform="matrix(0.857912,0.113131,-0.110195,0.835646,570.171,15.8301)">
                    <path d="M893.812,1613.75C893.812,1613.75 851.541,1391.67 922.584,1334.98C922.584,1334.98 959.738,1298.1 981.806,1282.21C981.809,1282.21 981.812,1282.21 981.814,1282.21C982.418,1281.78 1016.96,1257.39 1010.44,1304.86C1010.44,1304.86 999.907,1343.09 974.617,1370.74C974.617,1370.74 1005.31,1422.1 968.954,1475.55L959.867,1574.6L1038.07,1580.83L1042.15,1508.53C1042.15,1508.53 1024.66,1503.52 1039.18,1483.12C1039.18,1483.12 1014.85,1468.1 1037.12,1443.92C1037.12,1443.92 1007.68,1433.35 1028.04,1407.34C1028.04,1407.34 987.971,1389.6 1028.04,1356.87C1028.04,1356.87 1056.77,1328.49 1069.17,1343.29C1074.34,1349.46 1078.35,1360.19 1065.65,1374.15C1065.65,1374.15 1091.66,1378.11 1077.2,1411.87C1081.9,1409.5 1103.12,1425.3 1080.84,1448.92C1080.84,1448.92 1117.94,1458.23 1069.17,1500.09L1080.52,1588.47L893.812,1613.75Z" style="fill:rgb(220,127,100);"/>
                </g>
                <path d="M1322.08,1390.11L1322.12,1398.9C1315.66,1401.69 1309.28,1403.37 1303.61,1403.45C1301.07,1403.49 1298.67,1403.22 1296.43,1402.62L1298.03,1394.77C1300.62,1395.57 1303.59,1395.63 1306.75,1395.2C1311.59,1394.54 1316.84,1392.7 1322.08,1390.11ZM1337.26,1348.81C1338.3,1349.09 1341.04,1350.11 1344.54,1353.66L1293.2,1384.7C1292.75,1384.98 1292.25,1385.15 1291.75,1385.23C1291.79,1378.97 1298.36,1372.71 1298.36,1372.71L1337.26,1348.81ZM1238.8,1358.07L1235.87,1370.78L1228.84,1376.52C1227.13,1377.91 1224.6,1377.65 1223.21,1375.94C1221.81,1374.23 1222.07,1371.71 1223.78,1370.31L1238.8,1358.07ZM1338.74,1317.36L1338.63,1317.51C1338.63,1317.51 1341.77,1316.69 1346.08,1322.32L1290.78,1354.93C1292.27,1345.57 1301.07,1339.7 1301.07,1339.7L1300.74,1339.77L1338.74,1317.36ZM1333.15,1284.58L1333.03,1284.74C1333.03,1284.74 1336.26,1285.29 1340.38,1289.4C1340.28,1289.49 1340.17,1289.57 1340.05,1289.64L1288.96,1322.72C1289.53,1315.25 1296.93,1308.08 1296.93,1308.08L1296.78,1308.12L1333.15,1284.58Z" style="fill:rgb(183,77,47);"/>
            </g>
        </g>
    </g>
</svg>
