<svg id="Layer_1" data-name="Layer 1" xmlns="http://www.w3.org/2000/svg" xmlns:xlink="http://www.w3.org/1999/xlink" viewBox="0 0 514.94 489.91"><defs><linearGradient id="linear-gradient" x1="278.74" y1="131.21" x2="297.58" y2="280.98" gradientUnits="userSpaceOnUse"><stop offset="0" stop-color="#010101" stop-opacity="0"/><stop offset="0.95" stop-color="#010101" stop-opacity="0.44"/></linearGradient><linearGradient id="linear-gradient-2" x1="275.44" y1="375.44" x2="276.45" y2="285.58" xlink:href="#linear-gradient"/><linearGradient id="linear-gradient-3" x1="213.24" y1="441.93" x2="248.08" y2="441.93" xlink:href="#linear-gradient"/><linearGradient id="linear-gradient-4" x1="290.11" y1="445.48" x2="327.01" y2="445.48" xlink:href="#linear-gradient"/><linearGradient id="linear-gradient-5" x1="328.86" y1="330.22" x2="332.23" y2="-1.63" gradientUnits="userSpaceOnUse"><stop offset="0" stop-color="#fff" stop-opacity="0"/><stop offset="0.15" stop-color="#fff" stop-opacity="0.22"/><stop offset="0.32" stop-color="#fff" stop-opacity="0.45"/><stop offset="0.48" stop-color="#fff" stop-opacity="0.65"/><stop offset="0.64" stop-color="#fff" stop-opacity="0.8"/><stop offset="0.78" stop-color="#fff" stop-opacity="0.91"/><stop offset="0.91" stop-color="#fff" stop-opacity="0.98"/><stop offset="1" stop-color="#fff"/></linearGradient><linearGradient id="linear-gradient-6" x1="225.6" y1="222.99" x2="243.1" y2="98.81" gradientUnits="userSpaceOnUse"><stop offset="0" stop-color="#010101" stop-opacity="0"/><stop offset="0.95" stop-color="#010101"/></linearGradient><linearGradient id="linear-gradient-7" x1="321.15" y1="185.92" x2="312.07" y2="632.19" xlink:href="#linear-gradient"/></defs><title>Like</title><path d="M211.57,19.65c-22.9,17.68-34.7,46.07-54.41,67.24-28.83,31-73,44.93-99.69,77.74-30.86,37.9-31,94.52-9.75,138.55C58.63,325.83,75.07,349,70,373.59c-2.44,11.93-9.8,22.35-12.7,34.17-5.11,20.81,4.79,43.29,20.84,57.48s37.3,21.17,58.45,24.62c69.67,11.35,140.11-12,210.68-13.25,20.81-.38,41.72,1.17,62.39-1.28,53.93-6.38,103-41.07,130.05-88.13,4.18-7.25,8-15.11,8.1-23.48.14-8.53-3.51-16.6-6.92-24.42-11-25.16-20.34-51.34-23.39-78.61-3.22-28.65.62-57.67-1.47-86.43-3.8-52.2-31.58-106.06-80.19-125.45-39.51-15.76-86.95-4.06-125-23.12-16-8-21.3-20.24-41.07-22.22C249.33,1.41,227.91,7,211.57,19.65Z" transform="translate(-32.89 -3.05)" fill="#68e1fd" opacity="0.24" style="isolation:isolate"/><path d="M189.73,420.63c-21.72-.12-47.78,2.2-58,21.38,34.24,23,77.91,25.71,119.18,25.72,19,0,38.11-.4,56.95-3,25.73-3.6,50.68-11.3,75.51-19l28.11-8.68c2.67-.83,5.81-2.16,6.21-4.93,2.89-19.57-78-11.05-90.81-10.71C281.27,422.59,235.38,420.9,189.73,420.63Z" transform="translate(-32.89 -3.05)" fill="#68e1fd" opacity="0.24" style="isolation:isolate"/><path d="M259.69,110.07s-18.86,8.17-21.08,10c-2,1.66,3.4,114.93,3.81,120.47S273,247,286.08,244.5a141.64,141.64,0,0,0,25.47-7.79s4.13-117,1.56-119.07-27.54-9.82-27.54-9.82Z" transform="translate(-32.89 -3.05)" fill="#68e1fd"/><path d="M305,116.47s5.76-.38,9.68,2,40.8,34.62,41.72,44.11-6.49,15.49-9.72,14.84S333.5,167,331.27,163.93s-22-7.16-22-7.16Z" transform="translate(-32.89 -3.05)" fill="#68e1fd"/><path d="M241,174.7a2.57,2.57,0,0,0,2.43,2.55c12.06,2.59,23.84-4.5,35.92-7,5.48-1.11,11.25-1.3,16.28-3.75,6.16-3,10.29-8.92,14.13-14.6l10-14.72c1.59-2.36,3.22-5.43,1.73-7.85-1.16-1.88-3.81-2.34-5.92-1.67s-3.79,2.21-5.45,3.67a143.59,143.59,0,0,1-27.26,18.84,64.27,64.27,0,0,1-13.12,5.53c-8,2.2-22.32.35-30.4.7C239.3,156.44,240,169.23,241,174.7Z" transform="translate(-32.89 -3.05)" fill="url(#linear-gradient)"/><path d="M346.46,147.76a14.89,14.89,0,0,1,5.8,4.68c2.61,3.56,7.11,8.73,8,13,1.06,4.95-3.36,11.95-8.45,12.84A18.13,18.13,0,0,1,335,171.75a20.27,20.27,0,0,1-3.5-17.93C333.57,146.29,340.66,145.12,346.46,147.76Z" transform="translate(-32.89 -3.05)" fill="#68e1fd"/><path d="M294.07,426.59s-2.26,14.91-1,16.6,8.38,1.14,12.79.16,5.48-6.68,5.48-6.68l.3-4.69Z" transform="translate(-32.89 -3.05)" fill="#ba816c"/><path d="M233.33,419.64s-4.52,20.23-3.46,22,9-2.62,13.46-3.17,4.89-7.75,4.89-7.75l.76-4.64Z" transform="translate(-32.89 -3.05)" fill="#ba816c"/><path d="M258.86,99s1.66,12.07.34,16.54,4.81,17.85,13.9,18.67,10.49-14.64,10.66-16.46-2.48-3-1.17-7.44S260.26,93.62,258.86,99Z" transform="translate(-32.89 -3.05)" fill="#ba816c"/><path d="M282.59,110.3c-1,3.45.33,4.93.92,6.26a11.52,11.52,0,0,1-7.79,2.64c-5.46-.5-13.24-5.78-16.14-14.3l-.15-.47c-.25-3.05-.57-5.44-.57-5.44C260.26,93.62,283.91,105.84,282.59,110.3Z" transform="translate(-32.89 -3.05)" fill="#a6634c"/><path d="M259.53,113.84s5.78,17.83,11.87,20.21c0,0,1.62,1.06-3.17,3.38s-16.3-12.47-13.58-22.31a7.52,7.52,0,0,1,5-5.4Z" transform="translate(-32.89 -3.05)" fill="#fff"/><path d="M282.43,112.12s.88,12.8-5,21c0,0,1.88,3.44,3.7,3.6s7.35-10.34,6.27-18.69C286.76,113.19,283.46,110.9,282.43,112.12Z" transform="translate(-32.89 -3.05)" fill="#fff"/><path d="M222.69,177.32" transform="translate(-32.89 -3.05)" fill="none" stroke="#000" stroke-miterlimit="10" stroke-width="0.8"/><path d="M243.33,240.64l-3.75,76.46-7.19,106s4.13,4.95,16,5.11l21.41-107.83,10.06-54.8L288.54,319l3.61,111.33s8.41.17,19.32,1.16l7.08-109.79-7-85Z" transform="translate(-32.89 -3.05)" fill="#606161"/><path d="M243.33,240.64l-3.75,76.46-7.19,106s4.13,4.95,16,5.11l21.41-107.83,10.06-54.8L288.54,319l3.61,111.33s8.41.17,19.32,1.16l7.08-109.79-7-85Z" transform="translate(-32.89 -3.05)" fill="url(#linear-gradient-2)"/><path d="M291.25,75.32s-.31,23.81-2.71,30S280.2,116.5,274.74,116s-13.23-5.78-16.13-14.29S255.69,73,256.85,70.38s7.42-10.75,21.82-8.12C288.6,64.08,291.58,71.68,291.25,75.32Z" transform="translate(-32.89 -3.05)" fill="#ba816c"/><path d="M281.5,56.07a20.88,20.88,0,0,0-6.19-4.77,19.55,19.55,0,0,0-7.41-1.6c-4.89-.23-10.4.95-13.08,5-1.74,2.67-1.93,6-1.74,9.23a2.39,2.39,0,0,1-.16,1.27c-.5.94-1.86.75-2.92.74-4.21,0-7.06,5-6.12,9.09,1.24,5.39,6.52,6.46,8.87,10.66.38.68.91,1.44,1.69,1.46,1,0,1.53-1.1,1.82-2,1.46-4.8.81-9.31,4.26-13.54a1.61,1.61,0,0,1,.94-.67c1.18-.13,1.36,2.07,2.54,2.24,1.08-1.38,2.63-2.94,4.31-2.41A5.1,5.1,0,0,1,270.59,73a17.65,17.65,0,0,0,25.07,3.76A7.32,7.32,0,0,0,298.49,73c.55-2.06-.39-4.19-1.36-6.09a15,15,0,0,0-3-4.47,5.52,5.52,0,0,0-5-1.51,4.78,4.78,0,0,1-2.34.46,3,3,0,0,1-1.33-1C284.12,59,282.84,57.49,281.5,56.07Z" transform="translate(-32.89 -3.05)" fill="#606161"/><path d="M257.28,86s-.42-5.54-4.22-4.05-.16,11.91,1.58,13a5.12,5.12,0,0,0,2.64,1" transform="translate(-32.89 -3.05)" fill="#ba816c"/><path d="M342.66,163.52s-4.81-7.32,5.88-14.93,43.64-28.65,43.64-28.65l2.09,12.15S362.49,173,354.21,171.67A16.07,16.07,0,0,1,342.66,163.52Z" transform="translate(-32.89 -3.05)" fill="#ba816c"/><path d="M392.18,119.94a49.29,49.29,0,0,1,2.69-4.22c.61-.85,1.38-1.54,2-2.35.93-1.22.57-3.61.64-5.14a10.62,10.62,0,0,1,1.18-4.88,1.48,1.48,0,0,1,.65-.66,1.09,1.09,0,0,1,1.09.26,2.73,2.73,0,0,1,.64,1,15.7,15.7,0,0,1,1.3,5.12c.09,1.31.48,2.35,1.81,1.81a19.4,19.4,0,0,1,3.93-1.1c1.21-.21,5-1,5.46.8.84,3.24-4.37,15.11-4.7,16s-14.61,5.57-14.61,5.57Z" transform="translate(-32.89 -3.05)" fill="#ba816c"/><path d="M214.78,443.61c-.82.77-1.69,1.74-1.52,2.85s1.2,1.76,2.18,2.23c6.8,3.26,14.8,2.71,22.2,1.19,2.74-.56,5.61-1.34,7.53-3.38a10.25,10.25,0,0,0,2.24-4.22A16.69,16.69,0,0,0,248,436a2.68,2.68,0,0,0-1-2.18,2.84,2.84,0,0,0-1.39-.27c-4.93-.11-12.05-1.74-16.58.23A48.18,48.18,0,0,0,214.78,443.61Z" transform="translate(-32.89 -3.05)" fill="#606161"/><path d="M296.16,437.81a6.77,6.77,0,0,0-3.52.05,4.36,4.36,0,0,0-2.47,3.6,12.76,12.76,0,0,0,.52,4.54,8,8,0,0,0,1.44,3.5,7,7,0,0,0,3.88,1.94,49.08,49.08,0,0,0,8.38.93l17.7.95a5.58,5.58,0,0,0,3.81-.71,3.75,3.75,0,0,0,.61-4.59,10.19,10.19,0,0,0-3.59-3.43c-3.4-2.25-8.21-6-12.31-6.62-1.95-.32-4.38.39-6.38.4A53.14,53.14,0,0,1,296.16,437.81Z" transform="translate(-32.89 -3.05)" fill="#606161"/><path d="M214.78,443.61c-.82.77-1.69,1.74-1.52,2.85s1.2,1.76,2.18,2.23c6.8,3.26,14.8,2.71,22.2,1.19,2.74-.56,5.61-1.34,7.53-3.38a10.25,10.25,0,0,0,2.24-4.22A16.69,16.69,0,0,0,248,436a2.68,2.68,0,0,0-1-2.18,2.84,2.84,0,0,0-1.39-.27c-4.93-.11-12.05-1.74-16.58.23A48.18,48.18,0,0,0,214.78,443.61Z" transform="translate(-32.89 -3.05)" fill="url(#linear-gradient-3)"/><path d="M296.16,437.81a6.77,6.77,0,0,0-3.52.05,4.36,4.36,0,0,0-2.47,3.6,12.76,12.76,0,0,0,.52,4.54,8,8,0,0,0,1.44,3.5,7,7,0,0,0,3.88,1.94,49.08,49.08,0,0,0,8.38.93l17.7.95a5.58,5.58,0,0,0,3.81-.71,3.75,3.75,0,0,0,.61-4.59,10.19,10.19,0,0,0-3.59-3.43c-3.4-2.25-8.21-6-12.31-6.62-1.95-.32-4.38.39-6.38.4A53.14,53.14,0,0,1,296.16,437.81Z" transform="translate(-32.89 -3.05)" fill="url(#linear-gradient-4)"/><path d="M453,195a3.18,3.18,0,0,1,.55-2.4,26.94,26.94,0,0,0,6.69-19.82,24.19,24.19,0,0,0-24.6-23l-55.88.91a11.68,11.68,0,0,1,.09-1.59c.82-5.41,1.59-10.81,2.47-16.19a51.16,51.16,0,0,0-.85-21.47c-2.48-9.68-6.38-18.81-10.59-27.85-2.14-4.62-5.17-8.11-9.86-10.21-9.41-4.21-18.58-4.38-27.38,1.48-5.63,3.74-8.88,8.66-8.44,15.84.46,8,.26,15.91.48,23.89a12.93,12.93,0,0,1-.85,5.7c-.77,1.73-2,3.13-2.75,4.91a43.7,43.7,0,0,1-2.29,4.11c-1.54,2.82-3.09,5.62-4.72,8.38-4.79,8.21-9.31,16.6-15.23,24.09-2.36,3-4.91,5.86-7.46,8.73-.69.78-1.48,1.26-2.64.37a13.41,13.41,0,0,0-8.59-2.49q-32.84.5-65.66,1.05c-8.78.14-14.89,6.9-14.19,15.67.69,8,1.47,16,2.22,23.92.65,7.27,1.24,14.54,2,21.78.82,8.71,1.73,17.42,2.58,26.12.6,5.92,1.08,11.83,1.7,17.75a9.14,9.14,0,0,0,1,2.45l-.86.14c.44,3,.34,6.3,1.45,9.08,3.35,8.31,9.82,9.62,17.09,8.91.15,0,.23-.44.34-.68a13.57,13.57,0,0,0,2.93.66c17.38-.26,34.79-.51,52.17-.86a13,13,0,0,0,12.34-8.12,46.68,46.68,0,0,0,1.87-6.31,19.88,19.88,0,0,1,2.28,1.11c2.26,1.32,4.57,2.73,6.68,4.18a8.47,8.47,0,0,0,1.42.85,15,15,0,0,0,3.15.67,17.19,17.19,0,0,0,3.71.45c13.7-.14,27.37-.39,41-.61,16.79-.28,33.67-.5,50.5-.88l5.41-.13a15.63,15.63,0,0,0,7.07-1.91A70.8,70.8,0,0,0,430,276c8-7,11.56-15.69,8.94-26.4a3.92,3.92,0,0,1,.78-2.55c1.36-2,2.89-3.88,4.21-5.9.32-.48.1-1.3.11-1.95,1.31.74,1.2-.58,1.4-1.11,2.1-5.19,2-10.53.83-15.9a3.07,3.07,0,0,1,.52-2.4C453.52,212.71,455.21,204.37,453,195Zm-170.93.79,1.34,81.67c.05,2.77.05,2.77-2.78,2.81-17.89.3-35.77.56-53.65.91-2,.06-2.6-.52-2.78-2.46q-1.16-14-2.55-28c-.78-8.18-1.68-16.36-2.43-24.54-.68-7-1.24-14-1.88-21.07-.58-6.41-1.16-12.83-1.85-19.24-.21-1.82.41-2.22,2.14-2.21,14.79-.19,29.55-.46,44.34-.7,5-.08,10-.14,15.06-.13a2.92,2.92,0,0,1,1,.1,2.86,2.86,0,0,1,1.41,1.19,8.18,8.18,0,0,1,2,4.44,6,6,0,0,0,.27,1.5c.09.41.18.79.28,1.23A31.51,31.51,0,0,1,282.09,195.8Zm156.77-9c-.87.55-1.84.95-2.68,1.52-1.84,1.24-2,2.45-.38,3.93,4.58,4.31,6.72,12.73.3,18.56a38.37,38.37,0,0,1-6.67,4.7c-2.33,1.34-2.63,2.73-.52,4.34a9.47,9.47,0,0,1,3.94,6.51c.14,1,.42,2,.64,3-1.13,6.86-5.6,10.85-11.59,13.57-2.32,1-2.53,2.14-.65,3.75a12.42,12.42,0,0,1,4.35,6.71c1.3,5.31-1.23,9-4.8,12.34-.76.72-1.6,1.32-2.36,2-3.37,3-7.18,4.1-11.78,4.11-19.68.09-39.36.53-59.07.88-.64,0-1.29.17-1.94.24a17.36,17.36,0,0,0-2.15-.2l-11.24.18-5.68.1a19.81,19.81,0,0,1-5.05-.08,2.8,2.8,0,0,0-1,0,28.52,28.52,0,0,1-3.43.46,9,9,0,0,1-3.08-.61,35.46,35.46,0,0,1-5.48-3.06c-1.67-1-3.28-2.1-5-3a4.39,4.39,0,0,0-2.19-.62c-2.39,0-4.75,0-7.13.09-1.44.08-1.86-.41-1.89-1.85,0-7.9-.23-15.83-.36-23.72-.27-16.73-.51-33.44-.85-50.17,0-1.95.33-3.16,2.26-4.1,7.43-3.63,12.69-9.64,17.51-16.17a253.41,253.41,0,0,0,17.2-27.37l3.27-5.8c2.63-4.75,5.23-9.51,7.81-14.33a7.18,7.18,0,0,0,.68-3.13,4.33,4.33,0,0,0-.23-1.27,7.65,7.65,0,0,1-.08-1.35l-.05-3.24q0-3.22-.08-6.45l-.21-12.94c-.05-1.47-.08-2.94-.1-4.39a3.3,3.3,0,0,1,1.25-2.82c5.11-4.5,11.76-3.46,16.5-.15,1.31.92,1.79,3.07,2.58,4.7A139.2,139.2,0,0,1,368.14,115c1.6,6,1.23,12,.21,18q-2.39,13.88-4.82,27.78c-.22,1.27-.37,2.57-.55,4a9.57,9.57,0,0,0,1.26.09c23.75-.39,47.53-.69,71.3-1.19,7.13-.18,12,6.16,10.85,12.93C445.58,181.31,442.77,184.45,438.86,186.81Z" transform="translate(-32.89 -3.05)" fill="#68e1fd"/><path d="M452.65,192.89a3.12,3.12,0,0,1,.54-2.4,27,27,0,0,0,6.7-19.83,24.22,24.22,0,0,0-24.6-23.06l-55.9.93a15.45,15.45,0,0,1,.1-1.61c.83-5.41,1.58-10.79,2.48-16.17a51.21,51.21,0,0,0-.86-21.48c-2.48-9.68-6.39-18.83-10.58-27.87-2.15-4.62-5.16-8.1-9.86-10.18-9.43-4.23-18.58-4.41-27.4,1.47-5.63,3.73-8.86,8.64-8.43,15.85.47,7.93.25,15.89.47,23.88a13.12,13.12,0,0,1-.82,5.7c-.79,1.73-2,3.12-2.77,4.92a46.87,46.87,0,0,1-2.29,4.09c-1.54,2.83-3.09,5.63-4.73,8.39-4.77,8.21-9.29,16.6-15.21,24.09-2.37,3-4.91,5.85-7.46,8.72a1.7,1.7,0,0,1-2.65.36,13.56,13.56,0,0,0-8.57-2.48q-32.87.49-65.7,1c-8.75.15-14.88,6.92-14.16,15.67.68,8,1.47,16,2.22,24,.65,7.24,1.22,14.52,1.94,21.76.82,8.72,1.72,17.4,2.58,26.11.61,5.92,1.08,11.83,1.72,17.75a9.53,9.53,0,0,0,1,2.47l-.86.11c.43,3.09.36,6.31,1.47,9.11,3.33,8.28,9.79,9.61,17.07,8.89.14,0,.21-.43.36-.68a12.11,12.11,0,0,0,2.9.65c17.39-.25,34.82-.5,52.18-.83a13,13,0,0,0,12.33-8.14,40.87,40.87,0,0,0,1.87-6.31,24,24,0,0,1,2.29,1.11c2.26,1.33,4.56,2.73,6.67,4.2a10.87,10.87,0,0,0,1.44.82,15.11,15.11,0,0,0,3.15.68,17.68,17.68,0,0,0,3.7.47c13.69-.14,27.36-.39,41.06-.61,16.78-.29,33.63-.5,50.49-.9l5.41-.1A15.73,15.73,0,0,0,419,281.5a69.92,69.92,0,0,0,10.61-7.6c8-7,11.58-15.67,9-26.39a3.81,3.81,0,0,1,.79-2.55c1.33-2,2.87-3.87,4.2-5.92.32-.46.11-1.29.11-1.93,1.32.75,1.18-.58,1.39-1.11a26.17,26.17,0,0,0,.83-15.89,3.09,3.09,0,0,1,.54-2.4C453.15,210.57,454.83,202.25,452.65,192.89ZM280.27,278.17c-17.89.28-35.75.53-53.65.89-2,.07-2.61-.54-2.79-2.47-.76-9.33-1.62-18.61-2.55-27.94-.75-8.17-1.68-16.35-2.44-24.52-.64-7.07-1.22-14.06-1.86-21.09-.58-6.42-1.15-12.84-1.83-19.26-.22-1.79.39-2.18,2.12-2.18,14.8-.22,29.54-.47,44.35-.72,5-.07,10-.14,15.06-.11a2.44,2.44,0,0,1,1,.07,3.16,3.16,0,0,1,1.4,1.19,8.08,8.08,0,0,1,2.05,4.44,6.53,6.53,0,0,0,.25,1.51c.1.43.21.79.28,1.25a26.41,26.41,0,0,1,.07,4.45l1.37,81.65C283.1,278.09,283.1,278.09,280.27,278.17ZM446,174.46c-.82,4.73-3.62,7.85-7.53,10.22-.86.54-1.83.93-2.69,1.51-1.83,1.25-2,2.47-.36,3.94,4.56,4.3,6.71,12.73.29,18.54a39.31,39.31,0,0,1-6.67,4.73c-2.33,1.33-2.62,2.73-.5,4.34a9.42,9.42,0,0,1,3.91,6.49c.14,1,.43,2.05.64,3-1.11,6.88-5.59,10.86-11.58,13.59-2.33,1-2.54,2.11-.64,3.73a12.34,12.34,0,0,1,4.33,6.7c1.3,5.34-1.21,9-4.8,12.37-.75.72-1.58,1.29-2.33,2-3.37,3-7.21,4.09-11.8,4.09-19.69.11-39.34.54-59.06.9-.65,0-1.29.17-1.94.21s-1.47-.18-2.15-.18l-11.26.18-5.66.11a18.59,18.59,0,0,1-5.06-.11,3.3,3.3,0,0,0-1,0,28.17,28.17,0,0,1-3.44.47,8.86,8.86,0,0,1-3.05-.61,37.25,37.25,0,0,1-5.49-3c-1.68-1-3.3-2.12-5-3a3.85,3.85,0,0,0-2.18-.61c-2.37-.07-4.74-.07-7.14.07-1.44.07-1.87-.43-1.87-1.87,0-7.88-.25-15.81-.35-23.7-.29-16.75-.54-33.46-.86-50.17,0-1.93.32-3.15,2.25-4.12,7.43-3.62,12.7-9.61,17.5-16.17a248.86,248.86,0,0,0,17.22-27.36c1.07-1.94,2.18-3.84,3.26-5.78,2.62-4.77,5.24-9.54,7.82-14.34a7.28,7.28,0,0,0,.68-3.12,4.77,4.77,0,0,0-.22-1.29,8.51,8.51,0,0,1-.1-1.33l0-3.26c0-2.15,0-4.3-.07-6.46l-.22-12.91c-.07-1.47-.07-3-.1-4.41A3.16,3.16,0,0,1,339.94,85c5.09-4.52,11.76-3.48,16.5-.18,1.32.93,1.79,3.08,2.58,4.69a138.32,138.32,0,0,1,8.75,23.31c1.61,6,1.22,12,.21,18-1.61,9.25-3.22,18.47-4.84,27.76-.21,1.29-.36,2.58-.54,4a8.28,8.28,0,0,0,1.26.1c23.74-.39,47.51-.68,71.29-1.18A10.81,10.81,0,0,1,446,174.46Z" transform="translate(-32.89 -3.05)" opacity="0.54" fill="url(#linear-gradient-5)"/><path d="M280.14,281c-17.89.29-35.75.54-53.64.9-2,.07-2.62-.54-2.8-2.48-.75-9.32-1.61-18.61-2.55-27.93-.75-8.18-1.68-16.35-2.44-24.53-.64-7.06-1.21-14.05-1.86-21.08-.57-6.42-1.15-12.84-1.83-19.26-.21-1.79.4-2.19,2.12-2.19,14.81-.21,29.54-.46,44.35-.71,5-.08,10-.15,15.07-.11a2.09,2.09,0,0,1,1,.07,3.21,3.21,0,0,1,1.4,1.18,8.14,8.14,0,0,1,2.05,4.45,6.53,6.53,0,0,0,.25,1.51,11.45,11.45,0,0,1,.28,1.25,25.38,25.38,0,0,1,.08,4.45l1.36,81.65C283,280.9,283,280.9,280.14,281Z" transform="translate(-32.89 -3.05)" fill="#fff"/><path d="M207.62,202.94q12.18,5.49,24.82,9.9a26.44,26.44,0,0,0,6.58,1.64c5.08.37,9.87-2.11,14.36-4.51,2.28-1.23,4.92-3.12,4.53-5.68a4.55,4.55,0,0,0-3.57-3.35,22.74,22.74,0,0,0-5.16-.28c-6.2-.1-12-2.83-17.45-5.86-6.18-3.45-12.2-7.45-16.69-12.91a5.92,5.92,0,0,0-2.21-2,4.54,4.54,0,0,0-2.48-.08C198.24,182.08,196.8,198.08,207.62,202.94Z" transform="translate(-32.89 -3.05)" fill="url(#linear-gradient-6)"/><path d="M446.39,176.64c-.83,4.73-3.62,7.85-7.53,10.22-.86.53-1.83.93-2.69,1.5-1.83,1.26-2,2.48-.36,3.95,4.56,4.3,6.71,12.73.29,18.54a39.88,39.88,0,0,1-6.67,4.73c-2.33,1.33-2.62,2.72-.5,4.34a9.35,9.35,0,0,1,3.9,6.49c.15,1,.43,2,.65,3-1.11,6.89-5.59,10.87-11.58,13.59-2.33,1-2.55,2.12-.65,3.73a12.42,12.42,0,0,1,4.34,6.71c1.29,5.34-1.22,9-4.8,12.37-.76.72-1.58,1.29-2.34,2-3.37,3-7.2,4.08-11.79,4.08-19.69.11-39.34.54-59.06.9-.65,0-1.29.18-1.94.22a20.32,20.32,0,0,0-2.15-.18c-3.77.07-7.5.1-11.26.18l-5.67.1a18.12,18.12,0,0,1-5.05-.1,3,3,0,0,0-1,0,28.06,28.06,0,0,1-3.45.46,8.76,8.76,0,0,1-3-.61,34.6,34.6,0,0,1-5.49-3.05c-1.69-1-3.3-2.11-5-3a4.07,4.07,0,0,0-2.19-.61c-2.36-.07-4.73-.07-7.13.07-1.44.08-1.87-.43-1.87-1.86,0-7.89-.25-15.81-.36-23.7q-.42-25.12-.86-50.17c0-1.94.32-3.16,2.26-4.12,7.42-3.63,12.7-9.62,17.5-16.18a246.91,246.91,0,0,0,17.21-27.36c1.08-1.93,2.19-3.84,3.27-5.77,2.61-4.77,5.23-9.54,7.81-14.35a7.13,7.13,0,0,0,.68-3.12,4.77,4.77,0,0,0-.21-1.29,8.4,8.4,0,0,1-.11-1.32l0-3.27c0-2.15,0-4.3-.08-6.45l-.21-12.91c-.07-1.47-.07-3-.11-4.41a3.21,3.21,0,0,1,1.26-2.8c5.09-4.52,11.76-3.48,16.49-.18,1.33.93,1.8,3.09,2.58,4.7A138,138,0,0,1,368.14,115c1.62,6,1.22,12,.22,18-1.61,9.25-3.23,18.46-4.84,27.75-.22,1.29-.36,2.58-.54,4a8.37,8.37,0,0,0,1.26.11c23.73-.39,47.51-.68,71.28-1.18A10.81,10.81,0,0,1,446.39,176.64Z" transform="translate(-32.89 -3.05)" fill="#fff"/><polygon points="174.61 171.57 206.84 190.38 213.49 205.23 164.28 185.84 174.61 171.57" fill="#ba816c"/><path d="M239.72,193.43a32.55,32.55,0,0,1,4.6-3.3c1.5-.68,17.35,5.69,17.42,7.4s-.78,7.89-2.49,8.47-12.87,2.28-12.87,2.28S235.13,196.73,239.72,193.43Z" transform="translate(-32.89 -3.05)" fill="#ba816c"/><path d="M239.53,119.49s-13.23,5-16.78,13.84S189.21,182.55,195,189.49c2.93,3.51,9.52,6.36,9.52,6.36l19.33-12.09-4.13-4,19.11-27.07S244.34,126.57,239.53,119.49Z" transform="translate(-32.89 -3.05)" fill="#68e1fd"/><path d="M235.28,251.78c8.63.16,17.36.22,25.79-1.66s16.65-5.92,22.05-12.66l3.23,4.74A267,267,0,0,0,373,250.43a73.72,73.72,0,0,0,12.22-1.64c6.83-1.66,13.13-5,19.35-8.25l22.66-11.94c3.4.64,4.7,5,4.2,8.36s-2.09,6.74-1.73,10.17c.31,2.94,2,5.53,2.74,8.4,1.3,5.12-.76,10.69-4.3,14.61s-8.4,6.44-13.35,8.31c-12.82,4.85-26.73,5.93-40.43,6.51-11.7.49-23.41.65-35.11.82-6.88.09-13.89.17-20.47-1.84-6-1.83-11.39-5.33-17.25-7.62a10.42,10.42,0,0,0-5.55-.94,11.07,11.07,0,0,0-3.86,1.76c-6.68,4.25-12.85,9.45-20.17,12.49-10.41,4.32-22.1,3.86-33.36,3.33-9-.42-19.59-1.72-24.13-9.54a27.33,27.33,0,0,1-2.64-7.93c-1.09-4.91-8.78-26-3.12-28.25,2.72-1.07,8.9,2.69,11.8,3.29A82.24,82.24,0,0,0,235.28,251.78Z" transform="translate(-32.89 -3.05)" fill="url(#linear-gradient-7)"/></svg>