<svg id="Layer_1" data-name="Layer 1" xmlns="http://www.w3.org/2000/svg" xmlns:xlink="http://www.w3.org/1999/xlink" viewBox="0 0 331.68 244.18"><defs><linearGradient id="linear-gradient" x1="390.28" y1="181.02" x2="204.44" y2="59.26" gradientUnits="userSpaceOnUse"><stop offset="0.01"/><stop offset="0.13" stop-opacity="0.69"/><stop offset="0.25" stop-opacity="0.32"/><stop offset="1" stop-opacity="0"/></linearGradient><linearGradient id="linear-gradient-2" x1="242.18" y1="124.63" x2="242.06" y2="158.69" xlink:href="#linear-gradient"/><linearGradient id="linear-gradient-3" x1="242.33" y1="132.94" x2="240.2" y2="167.59" xlink:href="#linear-gradient"/><linearGradient id="linear-gradient-4" x1="241.89" y1="142.34" x2="240.7" y2="170.11" xlink:href="#linear-gradient"/><linearGradient id="linear-gradient-5" x1="131.77" y1="63.47" x2="85.49" y2="94" xlink:href="#linear-gradient"/></defs><title>22</title><path d="M298.47,25.65c23.91,21.69,20,61.07,38.09,87.82,6.82,10.1,16.63,18.13,22.05,29,5.76,11.58,5.92,25.1,5.17,38-.65,11.3-1.95,22.78-6.5,33.15-8.33,18.94-26.87,32-46.75,37.79s-41.07,5-61.6,2.49-40.89-6.84-61.54-8.06c-14.9-.88-29.85-.15-44.73,1-15.91,1.2-32.14,2.81-47.66-.9C74.62,241.08,57,227,46.16,209s-15-39.51-13.43-60.42c.84-11.48,3.41-23,9-33.08,8.43-15.29,23-26.1,37.23-36.2q16.32-11.58,32.91-22.77c19.35-13.06,39.16-25.82,61-34.09,23.47-8.89,44.31-8.29,68.74-6.85C262.48,16.85,280.76,9.59,298.47,25.65Z" transform="translate(-32.42 -11.67)" fill="#68e1fd" opacity="0.18" style="isolation:isolate"/><path d="M314.63,97.48a39.1,39.1,0,0,1-10.83,24c-5.54,5.81-9.79,12.34-11.62,20.24-.55,2.36-.83,4.78-1.26,7.36H256.3c-.26-1.75-.43-3.51-.77-5.23a40.34,40.34,0,0,0-10.18-19.75c-4.48-4.86-8.31-10-10.62-16.3-8.92-24.07,6.81-51,32.14-55,1.1-.17,2.2-.31,3.28-.39a41.27,41.27,0,0,1,44.48,45.06Z" transform="translate(-32.42 -11.67)" fill="#fff" style="isolation:isolate"/><path d="M307.86,97.48a39.1,39.1,0,0,1-10.83,24c-5.54,5.81-9.79,12.34-11.62,20.24-.55,2.36-.83,4.78-1.26,7.36H256.3c-.26-1.75-.43-3.51-.77-5.23a40.34,40.34,0,0,0-10.18-19.75c-4.48-4.86-8.31-10-10.62-16.3-8.92-24.07,6.81-51,32.14-55,1.1-.17,2.2-.31,3.28-.39a40.88,40.88,0,0,1,10.1,2.12A41.33,41.33,0,0,1,307.86,97.48Z" transform="translate(-32.42 -11.67)" fill="url(#linear-gradient)"/><path d="M119,214.33a22.08,22.08,0,0,0-7.88,2.26,8.69,8.69,0,0,0-4.62,6.43c-.3,3.31,2,6.41,4.87,8.06s6.25,2.15,9.53,2.62l23.58,3.35c4.77.68,9.54,1.36,14.35,1.73a29.78,29.78,0,0,0,6.19,0,69.46,69.46,0,0,0,6.78-1.6c7.51-1.78,15.36-1,23.07-1.2a14.06,14.06,0,0,0,5.51-1,5.32,5.32,0,0,0,3.24-4.27c.21-4.25-5.48-8.26-9.31-8.62-1.85-.17-3.68,0-5.54-.35-3.12-.59-6.19-1.62-9.27-2.39a192.2,192.2,0,0,0-38.63-6.06A119.38,119.38,0,0,0,119,214.33Z" transform="translate(-32.42 -11.67)" fill="#68e1fd" opacity="0.18" style="isolation:isolate"/><path d="M154.22,222.65a14.67,14.67,0,0,0,1.17,6.28,10.48,10.48,0,0,0,4.57,4.24,18,18,0,0,0,13.33,1.31,2.61,2.61,0,0,0,1.54-.93,2.31,2.31,0,0,0,.28-1.32c-.1-2.45-1.75-4.55-3.5-6.27s-3.72-3.31-4.81-5.51c-2-4.13-.52-15.12-8.3-13.36C152,208.56,154,218.05,154.22,222.65Z" transform="translate(-32.42 -11.67)" fill="#ffbbab"/><path d="M153.14,230.09s-1.1,2.72.25,4.31,15.33,10.28,24.73,3.28-12.75-7.89-12.75-7.89Z" transform="translate(-32.42 -11.67)" fill="#68e1fd"/><path d="M153.68,223.77a2,2,0,0,1,2.52.65,8.17,8.17,0,0,0,7.48,2.68c3.07-.73,4.29-4.26,5.82-4.28s9.66,6.9,10.11,9.88-3.69,5.15-8.29,5.44-15-2.89-17-5.3S152.62,225.29,153.68,223.77Z" transform="translate(-32.42 -11.67)" fill="#fff"/><path d="M183.8,217.28a14.67,14.67,0,0,0,1.17,6.28,10.43,10.43,0,0,0,4.57,4.24,18,18,0,0,0,13.33,1.31,2.57,2.57,0,0,0,1.54-.93,2.29,2.29,0,0,0,.28-1.32c-.1-2.45-1.75-4.55-3.5-6.27s-3.72-3.31-4.81-5.51c-2-4.13-.52-15.12-8.3-13.36C181.59,203.2,183.62,212.69,183.8,217.28Z" transform="translate(-32.42 -11.67)" fill="#ffbbab"/><path d="M179.3,120.49c2.58,1.35,2.61,5.15,3.41,8.15q3.66,13.85,6.61,27.88t5.18,28.18c.37,2.39,4.5,27.63,3.65,27.85-1.27.33-17.53,2.35-17.54,1.91a158.73,158.73,0,0,0-8.78-47.82c-5.54-15.9-11.94-30.82-15.42-47.34l13.77.48c2.51.08,5.17-.07,7.65.26A4.23,4.23,0,0,1,179.3,120.49Z" transform="translate(-32.42 -11.67)" fill="#282328"/><path d="M168.21,121c.75,2.74.4,6.32.49,9,.18,4.89.2,9.78.23,14.66l.39,72.57-17.11-.27c-1.71-17.25-3.6-60.82-6.05-69.86-2.55-9.37-6.24-16.82-4.86-27,1.49-11,8.73-13.31,17.61-7.77,2.6,1.63,6.86,4.15,8.53,6.83A7.35,7.35,0,0,1,168.21,121Z" transform="translate(-32.42 -11.67)" fill="#282328"/><path d="M201.14,81.62c-.2,2.45-1,4.57-3.2,5.22a3.16,3.16,0,0,1-.55.14c-3.94.68-9-2.43-12.52-5.13a48.79,48.79,0,0,1-4.19-3.59L181.36,52l18.56,20A30.06,30.06,0,0,1,201.14,81.62Z" transform="translate(-32.42 -11.67)" fill="#fff"/><path d="M184.91,81.77a101.39,101.39,0,0,0-2.07,14.39c-.67,8-2,16-3.33,23.94-7.63,1.38-15.41.58-23.1-.8-2.68-.48-5.35-1-8-1.57-.9-.18-1.7-.65-2.59-.89-4.41-1.22-5.63-23-5.86-29.85q-.33-9.73.11-19.48c.22-4.71.72-9.79,3.89-13.26,4.21-4.63,12.21-7.56,18.25-8.51a20.33,20.33,0,0,1,5.93-.18,25.2,25.2,0,0,1,7.94,2.93c2.95,1.55,5.57,2.87,7,5.86a40.25,40.25,0,0,1,3.05,10.83C186.89,70.73,186.12,76.33,184.91,81.77Z" transform="translate(-32.42 -11.67)" fill="#fff"/><path d="M156.41,119.3c-2.68-.48-5.35-1-8-1.57-.9-.18-1.7-.65-2.59-.89-4.41-1.22-5.63-23-5.86-29.85l11-12S147.05,110.32,156.41,119.3Z" transform="translate(-32.42 -11.67)" fill="#020202" opacity="0.1"/><path d="M172.23,40.37a4.36,4.36,0,0,1-2.8,1.31,14,14,0,0,1-2.67,0l-.49,0a.52.52,0,0,0-.37,0,.57.57,0,0,0-.17.4,29.66,29.66,0,0,0-.24,5.33h0l.06,1a1.78,1.78,0,0,1-.11,1,1.65,1.65,0,0,1-1.1.68,8,8,0,0,1-2.42.35,10.79,10.79,0,0,1-4.86-1.85,49.51,49.51,0,0,0-.24-9.11c-.46-3.9-1.38-7.82-.86-11.71a7.66,7.66,0,0,1,1.71-4.2c1.45-1.54,3.73-2,5.84-1.93A14.67,14.67,0,0,1,171.4,24a3.08,3.08,0,0,1,1.12,2.38c.27,1.54.47,3.1.6,4.66.15,1.77.21,3.55.19,5.34A6,6,0,0,1,172.23,40.37Z" transform="translate(-32.42 -11.67)" fill="#ffbbab"/><path d="M169.49,24.6a17.28,17.28,0,0,1-2,.38,12.36,12.36,0,0,0-4,.48c-2.66,1-3.87,4.39-3.06,7.11-.77.25-.87-1.12-1.44-1.69s-1.92.14-2,1.09a5.86,5.86,0,0,0,.77,2.72,8,8,0,0,1,.21,5.33c-.12.41-.44.89-.85.77s-.69-.83-.94-1.15c-.86-1.11-1.45-2.08-3-1.7a2.54,2.54,0,0,1-1.61.05c-.5-.22-.77-1-.34-1.32a5.27,5.27,0,0,1-3.38.63c-1.12-.32-1.92-1.85-1.12-2.7a3.34,3.34,0,0,1-1.56-5.13,2.32,2.32,0,0,1-.85-3.11A5.6,5.6,0,0,1,147,24.07a12,12,0,0,0,3.12-1.78,2.78,2.78,0,0,1,.16-3.89,5.47,5.47,0,0,1,4-1.34,4.91,4.91,0,0,1,8.31-4c1.27-.82,2.93-.49,4.39-.13a15.83,15.83,0,0,1,4.36,1.54A5.42,5.42,0,0,1,174.13,18a3.33,3.33,0,0,1-2,3.73,3.54,3.54,0,0,1,.92,1.8c0,.68-.47,1.45-1.16,1.38a7,7,0,0,1-1-.4A3.36,3.36,0,0,0,169.49,24.6Z" transform="translate(-32.42 -11.67)" fill="#473f47"/><path d="M166.76,41.66l-.49,0a.52.52,0,0,0-.37,0,.57.57,0,0,0-.17.4,29.66,29.66,0,0,0-.24,5.33h0s-5.06-1.43-4.73-7.7a29.7,29.7,0,0,0,6,1.93Z" transform="translate(-32.42 -11.67)" fill="#e0a194"/><path d="M227.67,60.76c-1.09.65-2.57.81-3.27,1.88-.84,1.26-.1,2.9.06,4.4A6.36,6.36,0,0,1,223,71.61,7.87,7.87,0,0,1,222,72.7a9.76,9.76,0,0,1-6,2s-1.07-4.8-1-5.29c.19-1.65,1.38-3.18,1.61-4.92a53.29,53.29,0,0,1,.65-5.52A11.65,11.65,0,0,1,224,51c.42-.18,1-.27,1.23.13a.83.83,0,0,1,.05.54v0c-.3,1.9-1.59,3.49-2.83,5a14.14,14.14,0,0,1,3.51-1.31c.54-.13,1.34,0,1.33.53,0,.27-.23.47-.43.64-1.11,1-2.21,1.9-3.33,2.84a10,10,0,0,1,4.11-.34,1.11,1.11,0,0,1,.64.23C228.65,59.73,228.2,60.45,227.67,60.76Z" transform="translate(-32.42 -11.67)" fill="#ffbbab"/><path d="M227.67,60.76c-1.09.65-2.57.81-3.27,1.88-.84,1.26-.1,2.9.06,4.4A6.36,6.36,0,0,1,223,71.61a6.17,6.17,0,0,1-1.23.53,1.36,1.36,0,0,1-.93,0,1.2,1.2,0,0,1-.53-1.45,9.1,9.1,0,0,1,.76-1.49,3.74,3.74,0,0,0,.22-2.75,5.83,5.83,0,0,1-.64-2.26,3.42,3.42,0,0,1,.58-1.35l1-1.64a2.22,2.22,0,0,0,.36-.8.71.71,0,0,0-.35-.75,1,1,0,0,0-.92.22c-.56.38-1.91,2-1.71.47a9.23,9.23,0,0,1,1.22-3,33.74,33.74,0,0,1,3.83-5.23,4.78,4.78,0,0,1,.51-.49v0c-.3,1.9-1.59,3.49-2.83,5a14.14,14.14,0,0,1,3.51-1.31c.54-.13,1.34,0,1.33.53,0,.27-.23.47-.43.64-1.11,1-2.21,1.9-3.33,2.84a10,10,0,0,1,4.11-.34,1.11,1.11,0,0,1,.64.23C228.65,59.73,228.2,60.45,227.67,60.76Z" transform="translate(-32.42 -11.67)" fill="#e0a194"/><path d="M217.21,75.26a37.45,37.45,0,0,1-9.38,8.88A18.28,18.28,0,0,1,199.14,87a3,3,0,0,1-1.2-.17,3.24,3.24,0,0,1-1.62-1.19,9.53,9.53,0,0,1-2.07-5.49c-.07-5.23,5.67-8.12,5.67-8.12s13-3.78,14.51-3.07c.84.39,1.58,2.22,2.1,3.81C217,74.1,217.21,75.26,217.21,75.26Z" transform="translate(-32.42 -11.67)" fill="#fff"/><rect x="135.47" y="54.01" width="19.37" height="45.59" rx="9.68" transform="translate(-14.66 -38.5) rotate(11.24)" fill="#fff"/><path d="M136.8,85.67l-22-.48-1.47,11.7s26.22,8.6,31.66,4.14,6.5-7.49,6.5-7.49S149.12,84.43,136.8,85.67Z" transform="translate(-32.42 -11.67)" fill="#fff"/><path d="M108.24,97.41a8.6,8.6,0,0,0,2.26.42c1,.09,2.09.14,3.13.15a11.71,11.71,0,0,0,3.5-.36,4.82,4.82,0,0,0,2.8-2,1.1,1.1,0,0,0,.18-.58c0-.65-.88-.85-1.54-.85-3.13,0-6.26,0-9.39,0-.92,0-2.74-.17-3.06,1.06C105.83,96.26,107.43,97.12,108.24,97.41Z" transform="translate(-32.42 -11.67)" fill="#ffbbab"/><rect x="62.64" y="80.41" width="43.35" height="3.24" rx="1.62" fill="#68e1fd"/><path d="M217.21,75.26a37.45,37.45,0,0,1-9.38,8.88A18.28,18.28,0,0,1,199.14,87a3,3,0,0,1-1.2-.17,3.16,3.16,0,0,1-.55.14c-3.94.68-9-2.43-12.52-5.13l0-.08L186.32,74a30.93,30.93,0,0,0,7.93,6.2,11.51,11.51,0,0,0,6.89,1.46,7,7,0,0,0,1.88-.51,61.44,61.44,0,0,0,13.51-8.33C217,74.1,217.21,75.26,217.21,75.26Z" transform="translate(-32.42 -11.67)" fill="#020202" opacity="0.1"/><path d="M182.72,224.72s-1.1,2.72.25,4.31,15.33,10.28,24.73,3.28S195,224.42,195,224.42Z" transform="translate(-32.42 -11.67)" fill="#68e1fd"/><path d="M183.26,218.4a2,2,0,0,1,2.52.65,8.2,8.2,0,0,0,7.48,2.69c3.07-.74,4.29-4.27,5.82-4.29s9.66,6.91,10.11,9.88-3.69,5.15-8.29,5.45-15-2.9-17-5.31S182.2,219.92,183.26,218.4Z" transform="translate(-32.42 -11.67)" fill="#fff"/><circle cx="241.26" cy="131.42" r="4.56" fill="#68e1fd"/><rect x="240.06" y="74.34" width="2.06" height="52.51" fill="#68e1fd"/><polygon points="236.88 75.24 245.8 75.24 241.2 66.61 236.88 75.24" fill="#68e1fd"/><path d="M278,102.66h-4.26v-2.15H278a4.14,4.14,0,0,0,4.14-4.14V93.05h2.15v3.32A6.29,6.29,0,0,1,278,102.66Z" transform="translate(-32.42 -11.67)" fill="#68e1fd"/><rect x="247.38" y="77.22" width="6.86" height="6.86" fill="#68e1fd"/><path d="M274.61,117.84h-2.15V114a3.19,3.19,0,0,0-3.18-3.18,6.29,6.29,0,0,1-6.29-6.29V95.76h2.15v8.81a4.15,4.15,0,0,0,4.14,4.14,5.33,5.33,0,0,1,5.33,5.33Z" transform="translate(-32.42 -11.67)" fill="#68e1fd"/><rect x="260.63" y="93.83" width="6.86" height="6.86" rx="3.43" transform="translate(495.71 182.85) rotate(-180)" fill="#68e1fd"/><rect x="220.44" y="137.44" width="43.36" height="9.03" rx="4.51" fill="#68e1fd"/><rect x="221.96" y="145.04" width="38.76" height="8.07" rx="4.03" fill="#68e1fd"/><rect x="224.53" y="151.63" width="33.63" height="7" rx="3.5" fill="#68e1fd"/><rect x="220.44" y="137.44" width="43.36" height="9.03" rx="4.51" fill="url(#linear-gradient-2)"/><rect x="221.96" y="145.04" width="38.76" height="8.07" rx="4.03" fill="url(#linear-gradient-3)"/><rect x="224.53" y="151.63" width="33.63" height="7" rx="3.5" fill="url(#linear-gradient-4)"/><path d="M130.06,90.42,121.55,67.5A2.35,2.35,0,0,0,119.47,66L88.1,64.31l8.7,28,31,1.28A2.35,2.35,0,0,0,130.06,90.42Z" transform="translate(-32.42 -11.67)" fill="#68e1fd"/><path d="M130,90.34,121.35,67a1.48,1.48,0,0,0-1.3-1L88.1,64.31l8.7,28,30.86,1.28A2.42,2.42,0,0,0,130,90.34Z" transform="translate(-32.42 -11.67)" fill="url(#linear-gradient-5)"/><path d="M128,90.87l-8.74-23.56A2.06,2.06,0,0,0,117.46,66L88.82,64.47a2,2,0,0,0-2.06,2.65l7.4,23.82A2.06,2.06,0,0,0,96,92.38l30,1.24A2,2,0,0,0,128,90.87Z" transform="translate(-32.42 -11.67)" fill="#68e1fd"/></svg>