<svg id="Layer_1" data-name="Layer 1" xmlns="http://www.w3.org/2000/svg" xmlns:xlink="http://www.w3.org/1999/xlink" viewBox="0 0 328.24 279.35"><defs><linearGradient id="linear-gradient" x1="280.15" y1="288.18" x2="273.39" y2="140.36" gradientUnits="userSpaceOnUse"><stop offset="0.01"/><stop offset="0.08" stop-opacity="0.69"/><stop offset="0.21" stop-opacity="0.32"/><stop offset="1" stop-opacity="0"/></linearGradient><linearGradient id="linear-gradient-2" x1="279.06" y1="280.52" x2="274.93" y2="200.93" xlink:href="#linear-gradient"/><linearGradient id="linear-gradient-3" x1="182.68" y1="135.68" x2="181.98" y2="167.5" xlink:href="#linear-gradient"/><linearGradient id="linear-gradient-4" x1="192.22" y1="229.35" x2="216.37" y2="229.35" xlink:href="#linear-gradient"/><linearGradient id="linear-gradient-5" x1="187.56" y1="207.42" x2="204.22" y2="207.42" gradientTransform="translate(77.44 -52.13) rotate(18.83)" xlink:href="#linear-gradient"/><linearGradient id="linear-gradient-6" x1="187.56" y1="182.28" x2="229.63" y2="182.28" gradientTransform="translate(445.02 37.91) rotate(107.44)" xlink:href="#linear-gradient"/><linearGradient id="linear-gradient-7" x1="174.95" y1="101.97" x2="219.44" y2="228.67" xlink:href="#linear-gradient"/><linearGradient id="linear-gradient-8" x1="182.79" y1="103.23" x2="179.97" y2="147.43" xlink:href="#linear-gradient"/><linearGradient id="linear-gradient-9" x1="385.61" y1="175.51" x2="310.53" y2="126.32" gradientUnits="userSpaceOnUse"><stop offset="0.01"/><stop offset="0.13" stop-opacity="0.69"/><stop offset="0.25" stop-opacity="0.32"/><stop offset="1" stop-opacity="0"/></linearGradient><linearGradient id="linear-gradient-10" x1="242.66" y1="72.05" x2="242.61" y2="85.81" xlink:href="#linear-gradient-9"/><linearGradient id="linear-gradient-11" x1="242.73" y1="75.41" x2="241.86" y2="89.41" xlink:href="#linear-gradient-9"/><linearGradient id="linear-gradient-12" x1="242.54" y1="79.21" x2="242.07" y2="90.43" xlink:href="#linear-gradient-9"/></defs><title>8</title><path d="M370.47,116a59.57,59.57,0,0,0-12-15c-11.3-10-26.61-14.54-41.68-15.43s-30.11,1.56-45,4C263.47,91,255,92.38,247.52,96.33c-12.09,6.42-19.54,18.44-25.26,30.43s-9.34,25.29-22.73,31c-8.43,3.61-18.41,4.79-27.19,7.84-17,5.92-33.51,14-47.38,25.65-13.46,11.3-21.12,34.63-25.36,51.24s-4.91,34.58.4,51c8.55,26.41,31.8,46.09,57.55,56.45s54,12.58,81.72,13.47c24,.77,49.06,2.31,73,.47,9.42-.72,18.12-1.57,27.75-1.68a119.1,119.1,0,0,0,33.78-4.81C391.33,352,407.59,341,416.48,325c12-21.7,8.89-48.8.74-72.24s-20.84-45.23-27.56-69.12c-4.05-14.42-5.86-29.39-9.76-43.86A99.73,99.73,0,0,0,370.47,116Z" transform="translate(-96.21 -85.39)" fill="#68e1fd" opacity="0.18" style="isolation:isolate"/><path d="M205.82,335.59c-3.3,1.43-6.78,4.7-5.46,8.05,14.48,5.27,30.27,5.27,45.68,5.2,37.35-.17,74.7-.33,112-.67,3.11,0,6.36-.09,9.09-1.58s4.69-4.89,3.5-7.76c-1.12-2.68-4.3-3.74-7.13-4.42a179.54,179.54,0,0,0-28.43-4.48c-7.78-.6-16.57-1.13-21.62-7.08-1.91-2.25-3.05-5.08-5-7.28-11.67-13.15-39.12-7.29-49.08,3.91C244.2,336.58,224.72,327.38,205.82,335.59Z" transform="translate(-96.21 -85.39)" fill="#68e1fd" opacity="0.18" style="isolation:isolate"/><path d="M242.33,233.41c-2.22,6.35-4.14,12.92-4.18,19.65s2,13.7,6.75,18.46c6.95,7,17.77,7.77,27.6,8.16l13,.52c5.11.2,10.27.4,15.28-.62s9.91-3.43,13-7.53a24.28,24.28,0,0,0,3.9-9.69c3.52-17.09-2.19-35.3-12.92-49.06a46,46,0,0,0-11.26-10.7c-7.22-4.59-28.71-11.47-35.77-3.78-3.21,3.49-5.24,10.56-7.27,14.84A200.61,200.61,0,0,0,242.33,233.41Z" transform="translate(-96.21 -85.39)" fill="#fff"/><path d="M249,229.77c-1.8,5.14-3.35,10.45-3.38,15.9s1.62,11.08,5.46,14.93c5.62,5.63,14.38,6.28,22.32,6.6l10.53.42a51.5,51.5,0,0,0,12.35-.51c4.05-.83,8-2.77,10.48-6.09a19.42,19.42,0,0,0,3.16-7.83c2.85-13.83-1.77-28.55-10.45-39.68a37.1,37.1,0,0,0-9.11-8.66c-5.84-3.71-23.22-9.27-28.93-3.06-2.59,2.83-4.24,8.55-5.87,12A161.77,161.77,0,0,0,249,229.77Z" transform="translate(-96.21 -85.39)" fill="url(#linear-gradient)"/><path d="M261.57,320.93c-1,1.74-2.11,3.41-3.06,5.16-1.45,2.72-2.45,5.93-1.49,8.85a2.82,2.82,0,0,0,.79,1.33,3.52,3.52,0,0,0,1.73.63,41.61,41.61,0,0,0,6.11.5c2.8,0,5.82-.33,7.9-2.21,4.17-3.79,3.89-13.12,1.5-17.7a3.17,3.17,0,0,0-2.9-2,20.87,20.87,0,0,0-5.74-.31c-2.15.24-2.72.76-3.47,2.81A20.46,20.46,0,0,1,261.57,320.93Z" transform="translate(-96.21 -85.39)" fill="#68e1fd"/><path d="M267.06,321.33a9.78,9.78,0,0,0,1.52.15c1.56.07,3.33.06,4.44-1.05s1.13-2.74,1.13-4.25v-5.86c0-3.87-3.62-3.34-6.46-2.86a4.12,4.12,0,0,0-1.84.69c-1,.79-1.11,2.23-1.15,3.49l-.2,6.17a4.19,4.19,0,0,0,.32,2.17A3,3,0,0,0,267.06,321.33Z" transform="translate(-96.21 -85.39)" fill="#fdbaac"/><path d="M298.16,320.93c1,1.74,2.11,3.41,3,5.16,1.46,2.72,2.46,5.93,1.49,8.85a2.82,2.82,0,0,1-.79,1.33,3.45,3.45,0,0,1-1.73.63,41.59,41.59,0,0,1-6.1.5c-2.8,0-5.83-.33-7.9-2.21-4.18-3.79-3.9-13.12-1.51-17.7a3.94,3.94,0,0,1,.82-1.16,4.05,4.05,0,0,1,2.08-.82,20.94,20.94,0,0,1,5.75-.31c2.14.24,2.71.76,3.46,2.81A19.47,19.47,0,0,0,298.16,320.93Z" transform="translate(-96.21 -85.39)" fill="#68e1fd"/><path d="M292.67,321.33a9.9,9.9,0,0,1-1.52.15c-1.57.07-3.33.06-4.44-1.05s-1.14-2.74-1.14-4.25v-5.86c0-3.87,3.63-3.34,6.46-2.86a4.11,4.11,0,0,1,1.85.69c1,.79,1.1,2.23,1.14,3.49l.2,6.17a4.19,4.19,0,0,1-.31,2.17A3,3,0,0,1,292.67,321.33Z" transform="translate(-96.21 -85.39)" fill="#fdbaac"/><path d="M289.91,169.51s12.2,5.28,13.63,6.48c1.28,1.07-2.19,74.31-2.46,77.89s-19.79,4.15-28.23,2.54a91.68,91.68,0,0,1-16.46-5s-2.67-75.65-1-77,17.8-6.34,17.8-6.34Z" transform="translate(-96.21 -85.39)" fill="#68e1fd"/><path d="M249.78,259.84c-.91,3.34-1.46,7.1.28,10.08a9.72,9.72,0,0,0,4.93,3.94,24.77,24.77,0,0,0,6.27,1.33,117.59,117.59,0,0,0,39.23-2.13,9.35,9.35,0,0,0,4.85-2.19,8.35,8.35,0,0,0,1.88-4.9,29.63,29.63,0,0,0-3.75-18.33,2.66,2.66,0,0,0-1-1.1,2.69,2.69,0,0,0-1.32-.22l-33.29.11a58.27,58.27,0,0,1-7.24-.27c-1.87-.22-4-1.41-5.34.19C252.43,249.69,250.9,255.68,249.78,259.84Z" transform="translate(-96.21 -85.39)" fill="#473f47"/><path d="M249.78,259.84c-.91,3.34-1.46,7.1.28,10.08a9.72,9.72,0,0,0,4.93,3.94,24.77,24.77,0,0,0,6.27,1.33,117.59,117.59,0,0,0,39.23-2.13,9.35,9.35,0,0,0,4.85-2.19,8.35,8.35,0,0,0,1.88-4.9,29.63,29.63,0,0,0-3.75-18.33,2.66,2.66,0,0,0-1-1.1,2.69,2.69,0,0,0-1.32-.22l-33.29.11a58.27,58.27,0,0,1-7.24-.27c-1.87-.22-4-1.41-5.34.19C252.43,249.69,250.9,255.68,249.78,259.84Z" transform="translate(-96.21 -85.39)" fill="url(#linear-gradient-2)"/><path d="M289.45,312.5l1.95.19c5.9.59,8.28-4.44,8.87-10.34.14-1.23.43-2.47.64-3.69L304.8,276l1.8-10.5c.18-1.06.37-2.11.54-3.17.52-3.08-.41-6.05-1-9.14-.35-1.87-.8-3.88-2.24-5.12s-3.43-1.35-5.29-1.44c-4.94-.22-9.95-.45-14.76.7a1.26,1.26,0,0,0-.77.4,1.29,1.29,0,0,0-.13.83c.35,4.7,1.1,9.36,1,14.06l-.85,37.76C282.5,306.25,283.55,311.91,289.45,312.5Z" transform="translate(-96.21 -85.39)" fill="#473f47"/><path d="M271,314l-2,.19c-5.89.59-8.28-4.44-8.87-10.34l-6.35-37c-.51-2.94-.94-5.77-1.16-8.76a19.91,19.91,0,0,1,.2-6.07,6.7,6.7,0,0,1,3.54-4.69,8.91,8.91,0,0,1,3-.58,45,45,0,0,1,10.11.48,7,7,0,0,1,3.35,1.19,7.27,7.27,0,0,1,2,3.51c1,2.88,2.29,6.06,2,9.14a46.74,46.74,0,0,0-.34,5.93l.29,13.1.49,21.43a2.17,2.17,0,0,0,0,.36C277.91,307.72,276.86,313.38,271,314Z" transform="translate(-96.21 -85.39)" fill="#473f47"/><path d="M373.62,236.78v2.16a3.15,3.15,0,0,1-3.15,3.16H185.88a3.15,3.15,0,0,1-3.15-3.16v-2.16a3.15,3.15,0,0,1,3.15-3.15H370.47A3.15,3.15,0,0,1,373.62,236.78Z" transform="translate(-96.21 -85.39)" fill="#473f47"/><path d="M316.2,200.15s7.92,16.5,7.07,21c-.59,3.17-6.66,5.95-9.06,7.39s-4.81,3.21-7.3,4.19-5.33.6-7.86.52l-13-.42c-.62,0-1.45-.23-1.45-.86,0-.37.32-.66.63-.87a7,7,0,0,1,3.28-1.22,33.52,33.52,0,0,0,8.26-1.58L311.73,218l-3.61-6.69Z" transform="translate(-96.21 -85.39)" fill="#fdbaac"/><path d="M256.1,174.06c-2.6,1.13-4.38,2.69-5,5.36-1,4.13-3.05,7.59-5,11.34a54.65,54.65,0,0,0-3,7.05,4.42,4.42,0,0,0-.34,2.34,4.66,4.66,0,0,0,.86,1.65q3.47,4.84,7.22,9.47a27.53,27.53,0,0,0,4.31-2.49c.53-.84.32-2.86.4-3.84q.22-3,.4-6.07Z" transform="translate(-96.21 -85.39)" fill="#68e1fd"/><path d="M285.46,160.33a10.34,10.34,0,0,1,.19,1.44c.13,1.94-.07,3.93.51,5.78a8.93,8.93,0,0,0,.9,1.9c1.39,2.2-.33,5.79-1.55,7.79-1.55,2.53-4,5-7.11,5.3-3.91.35-5.61-4-6.33-7.09-.42-1.78-.78-3.06-.11-4.82s1.71-3.44,2.24-5.3a37.1,37.1,0,0,0,.76-6.51,4,4,0,0,1,.45-1.67,3,3,0,0,1,2-1.28,8.31,8.31,0,0,1,2.39-.07,7.45,7.45,0,0,1,3.53.88A5.48,5.48,0,0,1,285.46,160.33Z" transform="translate(-96.21 -85.39)" fill="#fdbaac"/><path d="M274.61,163.62s1.59,9.95,5.82,8.16,5.26-7.5,5.26-7.5Z" transform="translate(-96.21 -85.39)" fill="#dea095"/><path d="M287.18,169.38s-3.74,11.52-7.68,13.06c0,0-1.05.69,2.05,2.19s10.54-8.07,8.78-14.43a4.88,4.88,0,0,0-3.27-3.49Z" transform="translate(-96.21 -85.39)" fill="#fff"/><path d="M272.37,168.26s-.57,8.28,3.23,13.61c0,0-1.21,2.22-2.39,2.33s-4.75-6.69-4-12.09C269.56,169,271.7,167.48,272.37,168.26Z" transform="translate(-96.21 -85.39)" fill="#fff"/><path d="M311,210.42" transform="translate(-96.21 -85.39)" fill="none" stroke="#000" stroke-miterlimit="10" stroke-width="0.34"/><path d="M269.08,141.42s.2,15.39,1.75,19.4,5.4,7.23,8.92,6.91,8.56-3.74,10.44-9.24,1.88-18.55,1.13-20.26-4.79-6.95-14.11-5.25C270.8,134.15,268.87,139.07,269.08,141.42Z" transform="translate(-96.21 -85.39)" fill="#fdbaac"/><path d="M316.5,192.17c1.3,1.84,2.22,3.17,2.44,3.48a4.22,4.22,0,0,1,.75,1.42,3.47,3.47,0,0,1-.79,2.66c-1.39,2-3.44,3.36-5.23,5a41.63,41.63,0,0,0-5.39,6.55,19,19,0,0,1-3.3-3,6.7,6.7,0,0,1-2.6-6.18l-.18-12.9-.1-6.45c0-1.11-1.43-6.13-.74-7C303,173.7,312,185.89,316.5,192.17Z" transform="translate(-96.21 -85.39)" fill="#68e1fd"/><path d="M267.13,147.12a.6.6,0,0,0-.35,0,.74.74,0,0,0-.26.29,3.52,3.52,0,0,0-.39,2.38,7.92,7.92,0,0,0,.76,1.92,5.57,5.57,0,0,0,1.76,2.5.82.82,0,0,0,.56.15.7.7,0,0,0,.38-.2,3.22,3.22,0,0,0,.76-2.2,4.62,4.62,0,0,0-.58-3.26A3.6,3.6,0,0,0,267.13,147.12Z" transform="translate(-96.21 -85.39)" fill="#fdbaac"/><path d="M293.36,146.87a.83.83,0,0,1,.35,0,.81.81,0,0,1,.26.29,3.61,3.61,0,0,1,.39,2.39,9.25,9.25,0,0,1-.76,1.92,5.56,5.56,0,0,1-1.76,2.49.84.84,0,0,1-.57.16.79.79,0,0,1-.37-.2,3.24,3.24,0,0,1-.76-2.2,4.55,4.55,0,0,1,.58-3.26A3.6,3.6,0,0,1,293.36,146.87Z" transform="translate(-96.21 -85.39)" fill="#fdbaac"/><path d="M266.44,140c-.32-2-.39-4.31,1-5.78.29-.31.64-.56.94-.86s.76-.91,1.15-1.37a12.23,12.23,0,0,1,9.14-3.93,30,30,0,0,1,10,1.93q2.7.88,5.36,1.91a5.23,5.23,0,0,1,1.87,1.05,3.1,3.1,0,0,1,.59,3.2c-.3.85-.92,1.57-1.17,2.43a8,8,0,0,0-.18,2.07,12.11,12.11,0,0,1-1.42,5.29,5.32,5.32,0,0,1-2.29,2.44,22.48,22.48,0,0,0-1-7.38,13.79,13.79,0,0,1-7.41,3,20.36,20.36,0,0,1-8-.91,3.55,3.55,0,0,0-2-.24c-.65.18-1.17,1-.8,1.54a1.14,1.14,0,0,0-1.58.36,3.38,3.38,0,0,0-.41,1.75l-.17,3.82C267.77,147.63,267,143.49,266.44,140Z" transform="translate(-96.21 -85.39)" fill="#fc682d"/><path d="M242.74,200.15c-1.64,3.41-3.15,6.9-4.49,10.44a47.24,47.24,0,0,0-2.38,7.58c-.21,1-.7,2.37-.33,3.38.57,1.55,2.92,2.76,4.24,3.56a106.59,106.59,0,0,0,13.11,6.83,22.16,22.16,0,0,0,5.52,1.8,24.35,24.35,0,0,0,4.52.13l8.68-.3c.79,0,1.82-.27,1.89-1.06,0-.55-.47-1-.94-1.29a18.52,18.52,0,0,0-5-2.21c-1.73-.47-3.87-.15-5.5-.73-1.84-.65-3.89-2.71-5.52-3.84L247.21,218l3.61-6.69Z" transform="translate(-96.21 -85.39)" fill="#fdbaac"/><polygon points="206.89 144.72 158.24 144.72 153.97 111.94 210.34 112.72 206.89 144.72" fill="#68e1fd"/><path d="M198.4,233.63,197,242.1l-16.16,99.5a2.86,2.86,0,0,1-2.47,2.53c-1.14,0-1.88-1.14-1.65-2.53l16.16-99.5,1.37-8.47Z" transform="translate(-96.21 -85.39)" fill="#473f47"/><path d="M359.43,233.63l1.37,8.47L377,341.6a2.86,2.86,0,0,0,2.47,2.53c1.14,0,1.88-1.14,1.65-2.53l-16.16-99.5-1.37-8.47Z" transform="translate(-96.21 -85.39)" fill="#473f47"/><rect x="158" y="144.71" width="48.89" height="3.57" fill="#68e1fd"/><rect x="158" y="144.71" width="48.89" height="3.57" fill="url(#linear-gradient-3)"/><path d="M261.9,303.16a4,4,0,0,0-1.26,4.58,5.3,5.3,0,0,0,2.84,2.21,25.92,25.92,0,0,0,12.63,2,2.13,2.13,0,0,0,1-.27,2,2,0,0,0,.67-1,10.43,10.43,0,0,0,.58-5,4.71,4.71,0,0,0-1.41-3,5.87,5.87,0,0,0-3.25-1C269.55,301.17,265.37,300.18,261.9,303.16Z" transform="translate(-96.21 -85.39)" fill="none"/><path d="M216.37,233.63H192.22a12.8,12.8,0,0,1,24.15,0Z" transform="translate(-96.21 -85.39)" fill="#68e1fd"/><rect x="194.06" y="185.45" width="3.66" height="43.92" rx="1.83" transform="translate(-152.68 -11.06) rotate(-18.83)" fill="#68e1fd"/><rect x="206.76" y="160.32" width="3.66" height="43.92" rx="1.83" transform="translate(1.01 350.53) rotate(-107.44)" fill="#68e1fd"/><path d="M216.37,233.63H192.22a12.8,12.8,0,0,1,24.15,0Z" transform="translate(-96.21 -85.39)" fill="url(#linear-gradient-4)"/><rect x="194.06" y="185.45" width="3.66" height="43.92" rx="1.83" transform="translate(-152.68 -11.06) rotate(-18.83)" fill="url(#linear-gradient-5)"/><rect x="206.76" y="160.32" width="3.66" height="43.92" rx="1.83" transform="translate(1.01 350.53) rotate(-107.44)" fill="url(#linear-gradient-6)"/><path d="M243.54,179.38c-3.1,4.44-6.77,7.28-8.34,6.51h0a1.37,1.37,0,0,1-.2-.13l-.21-.13c-4.58-3.21-8.81-11.7-5.6-16.29s12.64-3.54,17.22-.33l.2.15a1.33,1.33,0,0,1,.19.14h0C248.06,170.51,246.65,174.93,243.54,179.38Z" transform="translate(-96.21 -85.39)" fill="#68e1fd"/><path d="M243.54,179.38c-3.1,4.44-6.77,7.28-8.34,6.51h0l-.14-.08a.13.13,0,0,1-.06-.05c-1.39-1.11,0-5.6,3.18-10.13s6.91-7.39,8.43-6.47l.07,0,.12.1h0C248.06,170.51,246.65,174.93,243.54,179.38Z" transform="translate(-96.21 -85.39)" fill="#68e1fd"/><path d="M243.54,179.38c-3.1,4.44-6.77,7.28-8.34,6.51h0l-.14-.08a.13.13,0,0,1-.06-.05c-1.39-1.11,0-5.6,3.18-10.13s6.91-7.39,8.43-6.47l.07,0,.12.1h0C248.06,170.51,246.65,174.93,243.54,179.38Z" transform="translate(-96.21 -85.39)" fill="#fff"/><rect x="242.22" y="114.75" width="10.7" height="33.76" rx="2.42" fill="#68e1fd"/><rect x="349.98" y="200.15" width="10.7" height="33.76" rx="2.42" transform="translate(-110.28 -60.47) rotate(-3.94)" fill="#68e1fd"/><polygon points="206.94 144.72 158.29 144.72 154.02 111.94 210.39 112.72 206.94 144.72" fill="url(#linear-gradient-7)"/><polygon points="156.15 110.32 154.02 111.94 210.39 112.72 208.45 110.82 156.15 110.32" fill="url(#linear-gradient-8)"/><path d="M355.05,141.76a15.82,15.82,0,0,1-4.38,9.71,17.56,17.56,0,0,0-4.69,8.18c-.22.95-.34,1.93-.51,3h-14c-.1-.71-.17-1.42-.31-2.11a16.24,16.24,0,0,0-4.11-8,19.91,19.91,0,0,1-4.29-6.58,16.79,16.79,0,0,1,13-22.24c.45-.07.89-.12,1.32-.16a16.69,16.69,0,0,1,18,18.21Z" transform="translate(-96.21 -85.39)" fill="#fff" style="isolation:isolate"/><path d="M352.31,141.76a15.76,15.76,0,0,1-4.37,9.71,17.58,17.58,0,0,0-4.7,8.18c-.22.95-.33,1.93-.51,3H331.48c-.1-.71-.17-1.42-.31-2.11a16.24,16.24,0,0,0-4.11-8,19.91,19.91,0,0,1-4.29-6.58,16.79,16.79,0,0,1,13-22.24c.45-.07.89-.12,1.32-.16a16.68,16.68,0,0,1,15.24,18.21Z" transform="translate(-96.21 -85.39)" fill="url(#linear-gradient-9)"/><rect x="233.88" y="77.23" width="17.52" height="3.65" rx="1.82" fill="#68e1fd"/><rect x="234.49" y="80.29" width="15.66" height="3.26" rx="1.63" fill="#68e1fd"/><rect x="235.53" y="82.96" width="13.59" height="2.83" rx="1.41" fill="#68e1fd"/><rect x="233.88" y="77.23" width="17.52" height="3.65" rx="1.82" fill="url(#linear-gradient-10)"/><rect x="234.49" y="80.29" width="15.66" height="3.26" rx="1.63" fill="url(#linear-gradient-11)"/><rect x="235.53" y="82.96" width="13.59" height="2.83" rx="1.41" fill="url(#linear-gradient-12)"/><path d="M335,162.57a43.19,43.19,0,0,0-1-7.6,56.54,56.54,0,0,1-.93-6.28c-.22-3.19.41-5.42,1.93-6.82a1.58,1.58,0,0,1,1-.49,1.56,1.56,0,0,1,1.11.45c.05-.06.09-.12.14-.17a2.12,2.12,0,0,1,1-.7,1.5,1.5,0,0,1,1.2.16,2.06,2.06,0,0,1,.65.6,1.88,1.88,0,0,1,1.43-.25c.91.23,1.54,1.09,1.81,2.48.65,3.34-.06,6.71-.75,10a28.73,28.73,0,0,0-.93,8.42l-1,.09a29.38,29.38,0,0,1,.95-8.71c.7-3.31,1.36-6.43.75-9.57-.11-.56-.39-1.53-1.07-1.7a.94.94,0,0,0-.7.15,3.74,3.74,0,0,1,.17.54,12.44,12.44,0,0,1,.35,3,1.12,1.12,0,0,1-.33.86.78.78,0,0,1-.77.16,1.52,1.52,0,0,1-.88-1.09,5.52,5.52,0,0,1-.17-2.89,2.55,2.55,0,0,1,.4-.81,1.29,1.29,0,0,0-.42-.42.5.5,0,0,0-.41-.06,1.1,1.1,0,0,0-.51.39c-.08.09-.14.18-.21.27a5.37,5.37,0,0,1,1,3.89c-.1.69-.51,1.35-1.23,1.35a1.29,1.29,0,0,1-1.09-.89,5,5,0,0,1,.07-4.24l-.05,0c-.24-.23-.39-.28-.45-.27a.79.79,0,0,0-.36.22c-1.27,1.17-1.81,3.2-1.61,6a57.87,57.87,0,0,0,.91,6.16,43.81,43.81,0,0,1,1,7.78Zm2.28-19a4,4,0,0,0,.13,2.9.83.83,0,0,0,.22.31.82.82,0,0,0,.2-.48A4.41,4.41,0,0,0,337.27,143.61Zm2.57.1a5.35,5.35,0,0,0,.23,2.15v0A11.44,11.44,0,0,0,339.84,143.71Z" transform="translate(-96.21 -85.39)" fill="#68e1fd"/></svg>